<?xml version="1.0" standalone="no"?>
 <!DOCTYPE svg PUBLIC "-//W3C//DTD SVG 1.1//EN" 
 "http://www.w3.org/Graphics/SVG/1.1/DTD/svg11.dtd"> 
<svg
  xmlns:svg="http://www.w3.org/2000/svg"
  xmlns="http://www.w3.org/2000/svg"
  xmlns:xlink="http://www.w3.org/1999/xlink"
  version="1.1"
  width="419.9890mm" height="297.0022mm" viewBox="0.0000 0.0000 419.9890 297.0022">
<title>SVG Image created as artnet-led-controller-MCU (RP2354A).svg date 2026/04/16 20:20:55 </title>
  <desc>Image generated by Eeschema-SVG </desc>
<g style="fill:#000000; fill-opacity:1.0000;stroke:#000000; stroke-opacity:1.0000;
stroke-linecap:round; stroke-linejoin:round;"
 transform="translate(0 0) scale(1 1)">
</g>
<g style="fill:#F5F4EF; fill-opacity:1.0000; 
stroke:#F5F4EF; stroke-width:0.0001; stroke-opacity:1; 
stroke-linecap:round; stroke-linejoin:round;">
<rect x="0.000000" y="0.000000" width="419.989000" height="297.002200" rx="0.000000" />
</g>
<g style="fill:none; 
stroke:#840000; stroke-width:0.1524; stroke-opacity:1; 
stroke-linecap:round; stroke-linejoin:round;">
<path d="M299.9890 253.0022
L407.9890 253.0022
L407.9890 285.0022
L299.9890 285.0022
L299.9890 253.0022
" />
<path d="M10.0000 10.0000
L409.9890 10.0000
L409.9890 287.0022
L10.0000 287.0022
L10.0000 10.0000
" />
<path d="M12.0000 12.0000
L407.9890 12.0000
L407.9890 285.0022
L12.0000 285.0022
L12.0000 12.0000
" />
<path d="M60.0000 12.0000
L60.0000 10.0000
" />
<path d="M110.0000 12.0000
L110.0000 10.0000
" />
<path d="M160.0000 12.0000
L160.0000 10.0000
" />
<path d="M210.0000 12.0000
L210.0000 10.0000
" />
<path d="M260.0000 12.0000
L260.0000 10.0000
" />
<path d="M310.0000 12.0000
L310.0000 10.0000
" />
<path d="M360.0000 12.0000
L360.0000 10.0000
" />
<text x="35.0000" y="11.6500"
textLength="1.4353" font-size="1.7333" lengthAdjust="spacingAndGlyphs"
text-anchor="start" opacity="0" stroke-opacity="0">1</text>
<g class="stroked-text"><desc>1</desc>
<path d="M36.0906 11.5935
L35.3478 11.5935
" />
<path d="M35.7192 11.5935
L35.7192 10.2935
" />
<path d="M35.7192 10.2935
L35.5954 10.4792
" />
<path d="M35.5954 10.4792
L35.4716 10.6030
" />
<path d="M35.4716 10.6030
L35.3478 10.6649
" />
</g><text x="85.0000" y="11.6500"
textLength="1.4353" font-size="1.7333" lengthAdjust="spacingAndGlyphs"
text-anchor="start" opacity="0" stroke-opacity="0">2</text>
<g class="stroked-text"><desc>2</desc>
<path d="M85.3478 10.4173
L85.4097 10.3554
" />
<path d="M85.4097 10.3554
L85.5335 10.2935
" />
<path d="M85.5335 10.2935
L85.8430 10.2935
" />
<path d="M85.8430 10.2935
L85.9668 10.3554
" />
<path d="M85.9668 10.3554
L86.0287 10.4173
" />
<path d="M86.0287 10.4173
L86.0906 10.5411
" />
<path d="M86.0906 10.5411
L86.0906 10.6649
" />
<path d="M86.0906 10.6649
L86.0287 10.8506
" />
<path d="M86.0287 10.8506
L85.2859 11.5935
" />
<path d="M85.2859 11.5935
L86.0906 11.5935
" />
</g><text x="135.0000" y="11.6500"
textLength="1.4353" font-size="1.7333" lengthAdjust="spacingAndGlyphs"
text-anchor="start" opacity="0" stroke-opacity="0">3</text>
<g class="stroked-text"><desc>3</desc>
<path d="M135.2859 10.2935
L136.0906 10.2935
" />
<path d="M136.0906 10.2935
L135.6573 10.7887
" />
<path d="M135.6573 10.7887
L135.8430 10.7887
" />
<path d="M135.8430 10.7887
L135.9668 10.8506
" />
<path d="M135.9668 10.8506
L136.0287 10.9125
" />
<path d="M136.0287 10.9125
L136.0906 11.0363
" />
<path d="M136.0906 11.0363
L136.0906 11.3458
" />
<path d="M136.0906 11.3458
L136.0287 11.4696
" />
<path d="M136.0287 11.4696
L135.9668 11.5316
" />
<path d="M135.9668 11.5316
L135.8430 11.5935
" />
<path d="M135.8430 11.5935
L135.4716 11.5935
" />
<path d="M135.4716 11.5935
L135.3478 11.5316
" />
<path d="M135.3478 11.5316
L135.2859 11.4696
" />
</g><text x="185.0000" y="11.6500"
textLength="1.4353" font-size="1.7333" lengthAdjust="spacingAndGlyphs"
text-anchor="start" opacity="0" stroke-opacity="0">4</text>
<g class="stroked-text"><desc>4</desc>
<path d="M185.9668 10.7268
L185.9668 11.5935
" />
<path d="M185.6573 10.2316
L185.3478 11.1601
" />
<path d="M185.3478 11.1601
L186.1525 11.1601
" />
</g><text x="235.0000" y="11.6500"
textLength="1.4353" font-size="1.7333" lengthAdjust="spacingAndGlyphs"
text-anchor="start" opacity="0" stroke-opacity="0">5</text>
<g class="stroked-text"><desc>5</desc>
<path d="M236.0287 10.2935
L235.4097 10.2935
" />
<path d="M235.4097 10.2935
L235.3478 10.9125
" />
<path d="M235.3478 10.9125
L235.4097 10.8506
" />
<path d="M235.4097 10.8506
L235.5335 10.7887
" />
<path d="M235.5335 10.7887
L235.8430 10.7887
" />
<path d="M235.8430 10.7887
L235.9668 10.8506
" />
<path d="M235.9668 10.8506
L236.0287 10.9125
" />
<path d="M236.0287 10.9125
L236.0906 11.0363
" />
<path d="M236.0906 11.0363
L236.0906 11.3458
" />
<path d="M236.0906 11.3458
L236.0287 11.4696
" />
<path d="M236.0287 11.4696
L235.9668 11.5316
" />
<path d="M235.9668 11.5316
L235.8430 11.5935
" />
<path d="M235.8430 11.5935
L235.5335 11.5935
" />
<path d="M235.5335 11.5935
L235.4097 11.5316
" />
<path d="M235.4097 11.5316
L235.3478 11.4696
" />
</g><text x="285.0000" y="11.6500"
textLength="1.4353" font-size="1.7333" lengthAdjust="spacingAndGlyphs"
text-anchor="start" opacity="0" stroke-opacity="0">6</text>
<g class="stroked-text"><desc>6</desc>
<path d="M285.9668 10.2935
L285.7192 10.2935
" />
<path d="M285.7192 10.2935
L285.5954 10.3554
" />
<path d="M285.5954 10.3554
L285.5335 10.4173
" />
<path d="M285.5335 10.4173
L285.4097 10.6030
" />
<path d="M285.4097 10.6030
L285.3478 10.8506
" />
<path d="M285.3478 10.8506
L285.3478 11.3458
" />
<path d="M285.3478 11.3458
L285.4097 11.4696
" />
<path d="M285.4097 11.4696
L285.4716 11.5316
" />
<path d="M285.4716 11.5316
L285.5954 11.5935
" />
<path d="M285.5954 11.5935
L285.8430 11.5935
" />
<path d="M285.8430 11.5935
L285.9668 11.5316
" />
<path d="M285.9668 11.5316
L286.0287 11.4696
" />
<path d="M286.0287 11.4696
L286.0906 11.3458
" />
<path d="M286.0906 11.3458
L286.0906 11.0363
" />
<path d="M286.0906 11.0363
L286.0287 10.9125
" />
<path d="M286.0287 10.9125
L285.9668 10.8506
" />
<path d="M285.9668 10.8506
L285.8430 10.7887
" />
<path d="M285.8430 10.7887
L285.5954 10.7887
" />
<path d="M285.5954 10.7887
L285.4716 10.8506
" />
<path d="M285.4716 10.8506
L285.4097 10.9125
" />
<path d="M285.4097 10.9125
L285.3478 11.0363
" />
</g><text x="335.0000" y="11.6500"
textLength="1.4353" font-size="1.7333" lengthAdjust="spacingAndGlyphs"
text-anchor="start" opacity="0" stroke-opacity="0">7</text>
<g class="stroked-text"><desc>7</desc>
<path d="M335.2859 10.2935
L336.1525 10.2935
" />
<path d="M336.1525 10.2935
L335.5954 11.5935
" />
</g><text x="385.0000" y="11.6500"
textLength="1.4353" font-size="1.7333" lengthAdjust="spacingAndGlyphs"
text-anchor="start" opacity="0" stroke-opacity="0">8</text>
<g class="stroked-text"><desc>8</desc>
<path d="M385.5954 10.8506
L385.4716 10.7887
" />
<path d="M385.4716 10.7887
L385.4097 10.7268
" />
<path d="M385.4097 10.7268
L385.3478 10.6030
" />
<path d="M385.3478 10.6030
L385.3478 10.5411
" />
<path d="M385.3478 10.5411
L385.4097 10.4173
" />
<path d="M385.4097 10.4173
L385.4716 10.3554
" />
<path d="M385.4716 10.3554
L385.5954 10.2935
" />
<path d="M385.5954 10.2935
L385.8430 10.2935
" />
<path d="M385.8430 10.2935
L385.9668 10.3554
" />
<path d="M385.9668 10.3554
L386.0287 10.4173
" />
<path d="M386.0287 10.4173
L386.0906 10.5411
" />
<path d="M386.0906 10.5411
L386.0906 10.6030
" />
<path d="M386.0906 10.6030
L386.0287 10.7268
" />
<path d="M386.0287 10.7268
L385.9668 10.7887
" />
<path d="M385.9668 10.7887
L385.8430 10.8506
" />
<path d="M385.8430 10.8506
L385.5954 10.8506
" />
<path d="M385.5954 10.8506
L385.4716 10.9125
" />
<path d="M385.4716 10.9125
L385.4097 10.9744
" />
<path d="M385.4097 10.9744
L385.3478 11.0982
" />
<path d="M385.3478 11.0982
L385.3478 11.3458
" />
<path d="M385.3478 11.3458
L385.4097 11.4696
" />
<path d="M385.4097 11.4696
L385.4716 11.5316
" />
<path d="M385.4716 11.5316
L385.5954 11.5935
" />
<path d="M385.5954 11.5935
L385.8430 11.5935
" />
<path d="M385.8430 11.5935
L385.9668 11.5316
" />
<path d="M385.9668 11.5316
L386.0287 11.4696
" />
<path d="M386.0287 11.4696
L386.0906 11.3458
" />
<path d="M386.0906 11.3458
L386.0906 11.0982
" />
<path d="M386.0906 11.0982
L386.0287 10.9744
" />
<path d="M386.0287 10.9744
L385.9668 10.9125
" />
<path d="M385.9668 10.9125
L385.8430 10.8506
" />
</g><path d="M60.0000 285.0022
L60.0000 287.0022
" />
<path d="M110.0000 285.0022
L110.0000 287.0022
" />
<path d="M160.0000 285.0022
L160.0000 287.0022
" />
<path d="M210.0000 285.0022
L210.0000 287.0022
" />
<path d="M260.0000 285.0022
L260.0000 287.0022
" />
<path d="M310.0000 285.0022
L310.0000 287.0022
" />
<path d="M360.0000 285.0022
L360.0000 287.0022
" />
<text x="35.0000" y="286.6522"
textLength="1.4353" font-size="1.7333" lengthAdjust="spacingAndGlyphs"
text-anchor="start" opacity="0" stroke-opacity="0">1</text>
<g class="stroked-text"><desc>1</desc>
<path d="M36.0906 286.5957
L35.3478 286.5957
" />
<path d="M35.7192 286.5957
L35.7192 285.2957
" />
<path d="M35.7192 285.2957
L35.5954 285.4814
" />
<path d="M35.5954 285.4814
L35.4716 285.6052
" />
<path d="M35.4716 285.6052
L35.3478 285.6671
" />
</g><text x="85.0000" y="286.6522"
textLength="1.4353" font-size="1.7333" lengthAdjust="spacingAndGlyphs"
text-anchor="start" opacity="0" stroke-opacity="0">2</text>
<g class="stroked-text"><desc>2</desc>
<path d="M85.3478 285.4195
L85.4097 285.3576
" />
<path d="M85.4097 285.3576
L85.5335 285.2957
" />
<path d="M85.5335 285.2957
L85.8430 285.2957
" />
<path d="M85.8430 285.2957
L85.9668 285.3576
" />
<path d="M85.9668 285.3576
L86.0287 285.4195
" />
<path d="M86.0287 285.4195
L86.0906 285.5433
" />
<path d="M86.0906 285.5433
L86.0906 285.6671
" />
<path d="M86.0906 285.6671
L86.0287 285.8528
" />
<path d="M86.0287 285.8528
L85.2859 286.5957
" />
<path d="M85.2859 286.5957
L86.0906 286.5957
" />
</g><text x="135.0000" y="286.6522"
textLength="1.4353" font-size="1.7333" lengthAdjust="spacingAndGlyphs"
text-anchor="start" opacity="0" stroke-opacity="0">3</text>
<g class="stroked-text"><desc>3</desc>
<path d="M135.2859 285.2957
L136.0906 285.2957
" />
<path d="M136.0906 285.2957
L135.6573 285.7909
" />
<path d="M135.6573 285.7909
L135.8430 285.7909
" />
<path d="M135.8430 285.7909
L135.9668 285.8528
" />
<path d="M135.9668 285.8528
L136.0287 285.9147
" />
<path d="M136.0287 285.9147
L136.0906 286.0385
" />
<path d="M136.0906 286.0385
L136.0906 286.3480
" />
<path d="M136.0906 286.3480
L136.0287 286.4718
" />
<path d="M136.0287 286.4718
L135.9668 286.5338
" />
<path d="M135.9668 286.5338
L135.8430 286.5957
" />
<path d="M135.8430 286.5957
L135.4716 286.5957
" />
<path d="M135.4716 286.5957
L135.3478 286.5338
" />
<path d="M135.3478 286.5338
L135.2859 286.4718
" />
</g><text x="185.0000" y="286.6522"
textLength="1.4353" font-size="1.7333" lengthAdjust="spacingAndGlyphs"
text-anchor="start" opacity="0" stroke-opacity="0">4</text>
<g class="stroked-text"><desc>4</desc>
<path d="M185.9668 285.7290
L185.9668 286.5957
" />
<path d="M185.6573 285.2338
L185.3478 286.1623
" />
<path d="M185.3478 286.1623
L186.1525 286.1623
" />
</g><text x="235.0000" y="286.6522"
textLength="1.4353" font-size="1.7333" lengthAdjust="spacingAndGlyphs"
text-anchor="start" opacity="0" stroke-opacity="0">5</text>
<g class="stroked-text"><desc>5</desc>
<path d="M236.0287 285.2957
L235.4097 285.2957
" />
<path d="M235.4097 285.2957
L235.3478 285.9147
" />
<path d="M235.3478 285.9147
L235.4097 285.8528
" />
<path d="M235.4097 285.8528
L235.5335 285.7909
" />
<path d="M235.5335 285.7909
L235.8430 285.7909
" />
<path d="M235.8430 285.7909
L235.9668 285.8528
" />
<path d="M235.9668 285.8528
L236.0287 285.9147
" />
<path d="M236.0287 285.9147
L236.0906 286.0385
" />
<path d="M236.0906 286.0385
L236.0906 286.3480
" />
<path d="M236.0906 286.3480
L236.0287 286.4718
" />
<path d="M236.0287 286.4718
L235.9668 286.5338
" />
<path d="M235.9668 286.5338
L235.8430 286.5957
" />
<path d="M235.8430 286.5957
L235.5335 286.5957
" />
<path d="M235.5335 286.5957
L235.4097 286.5338
" />
<path d="M235.4097 286.5338
L235.3478 286.4718
" />
</g><text x="285.0000" y="286.6522"
textLength="1.4353" font-size="1.7333" lengthAdjust="spacingAndGlyphs"
text-anchor="start" opacity="0" stroke-opacity="0">6</text>
<g class="stroked-text"><desc>6</desc>
<path d="M285.9668 285.2957
L285.7192 285.2957
" />
<path d="M285.7192 285.2957
L285.5954 285.3576
" />
<path d="M285.5954 285.3576
L285.5335 285.4195
" />
<path d="M285.5335 285.4195
L285.4097 285.6052
" />
<path d="M285.4097 285.6052
L285.3478 285.8528
" />
<path d="M285.3478 285.8528
L285.3478 286.3480
" />
<path d="M285.3478 286.3480
L285.4097 286.4718
" />
<path d="M285.4097 286.4718
L285.4716 286.5338
" />
<path d="M285.4716 286.5338
L285.5954 286.5957
" />
<path d="M285.5954 286.5957
L285.8430 286.5957
" />
<path d="M285.8430 286.5957
L285.9668 286.5338
" />
<path d="M285.9668 286.5338
L286.0287 286.4718
" />
<path d="M286.0287 286.4718
L286.0906 286.3480
" />
<path d="M286.0906 286.3480
L286.0906 286.0385
" />
<path d="M286.0906 286.0385
L286.0287 285.9147
" />
<path d="M286.0287 285.9147
L285.9668 285.8528
" />
<path d="M285.9668 285.8528
L285.8430 285.7909
" />
<path d="M285.8430 285.7909
L285.5954 285.7909
" />
<path d="M285.5954 285.7909
L285.4716 285.8528
" />
<path d="M285.4716 285.8528
L285.4097 285.9147
" />
<path d="M285.4097 285.9147
L285.3478 286.0385
" />
</g><text x="335.0000" y="286.6522"
textLength="1.4353" font-size="1.7333" lengthAdjust="spacingAndGlyphs"
text-anchor="start" opacity="0" stroke-opacity="0">7</text>
<g class="stroked-text"><desc>7</desc>
<path d="M335.2859 285.2957
L336.1525 285.2957
" />
<path d="M336.1525 285.2957
L335.5954 286.5957
" />
</g><text x="385.0000" y="286.6522"
textLength="1.4353" font-size="1.7333" lengthAdjust="spacingAndGlyphs"
text-anchor="start" opacity="0" stroke-opacity="0">8</text>
<g class="stroked-text"><desc>8</desc>
<path d="M385.5954 285.8528
L385.4716 285.7909
" />
<path d="M385.4716 285.7909
L385.4097 285.7290
" />
<path d="M385.4097 285.7290
L385.3478 285.6052
" />
<path d="M385.3478 285.6052
L385.3478 285.5433
" />
<path d="M385.3478 285.5433
L385.4097 285.4195
" />
<path d="M385.4097 285.4195
L385.4716 285.3576
" />
<path d="M385.4716 285.3576
L385.5954 285.2957
" />
<path d="M385.5954 285.2957
L385.8430 285.2957
" />
<path d="M385.8430 285.2957
L385.9668 285.3576
" />
<path d="M385.9668 285.3576
L386.0287 285.4195
" />
<path d="M386.0287 285.4195
L386.0906 285.5433
" />
<path d="M386.0906 285.5433
L386.0906 285.6052
" />
<path d="M386.0906 285.6052
L386.0287 285.7290
" />
<path d="M386.0287 285.7290
L385.9668 285.7909
" />
<path d="M385.9668 285.7909
L385.8430 285.8528
" />
<path d="M385.8430 285.8528
L385.5954 285.8528
" />
<path d="M385.5954 285.8528
L385.4716 285.9147
" />
<path d="M385.4716 285.9147
L385.4097 285.9766
" />
<path d="M385.4097 285.9766
L385.3478 286.1004
" />
<path d="M385.3478 286.1004
L385.3478 286.3480
" />
<path d="M385.3478 286.3480
L385.4097 286.4718
" />
<path d="M385.4097 286.4718
L385.4716 286.5338
" />
<path d="M385.4716 286.5338
L385.5954 286.5957
" />
<path d="M385.5954 286.5957
L385.8430 286.5957
" />
<path d="M385.8430 286.5957
L385.9668 286.5338
" />
<path d="M385.9668 286.5338
L386.0287 286.4718
" />
<path d="M386.0287 286.4718
L386.0906 286.3480
" />
<path d="M386.0906 286.3480
L386.0906 286.1004
" />
<path d="M386.0906 286.1004
L386.0287 285.9766
" />
<path d="M386.0287 285.9766
L385.9668 285.9147
" />
<path d="M385.9668 285.9147
L385.8430 285.8528
" />
</g><path d="M10.0000 60.0000
L12.0000 60.0000
" />
<path d="M10.0000 110.0000
L12.0000 110.0000
" />
<path d="M10.0000 160.0000
L12.0000 160.0000
" />
<path d="M10.0000 210.0000
L12.0000 210.0000
" />
<path d="M10.0000 260.0000
L12.0000 260.0000
" />
<text x="11.0000" y="35.6500"
textLength="1.3115" font-size="1.7333" lengthAdjust="spacingAndGlyphs"
text-anchor="middle" opacity="0" stroke-opacity="0">A</text>
<g class="stroked-text"><desc>A</desc>
<path d="M10.6905 35.2220
L11.3095 35.2220
" />
<path d="M10.5667 35.5935
L11.0000 34.2935
" />
<path d="M11.0000 34.2935
L11.4333 35.5935
" />
</g><text x="11.0000" y="85.6500"
textLength="1.4972" font-size="1.7333" lengthAdjust="spacingAndGlyphs"
text-anchor="middle" opacity="0" stroke-opacity="0">B</text>
<g class="stroked-text"><desc>B</desc>
<path d="M11.0928 84.9125
L11.2785 84.9744
" />
<path d="M11.2785 84.9744
L11.3404 85.0363
" />
<path d="M11.3404 85.0363
L11.4023 85.1601
" />
<path d="M11.4023 85.1601
L11.4023 85.3458
" />
<path d="M11.4023 85.3458
L11.3404 85.4696
" />
<path d="M11.3404 85.4696
L11.2785 85.5316
" />
<path d="M11.2785 85.5316
L11.1547 85.5935
" />
<path d="M11.1547 85.5935
L10.6595 85.5935
" />
<path d="M10.6595 85.5935
L10.6595 84.2935
" />
<path d="M10.6595 84.2935
L11.0928 84.2935
" />
<path d="M11.0928 84.2935
L11.2166 84.3554
" />
<path d="M11.2166 84.3554
L11.2785 84.4173
" />
<path d="M11.2785 84.4173
L11.3404 84.5411
" />
<path d="M11.3404 84.5411
L11.3404 84.6649
" />
<path d="M11.3404 84.6649
L11.2785 84.7887
" />
<path d="M11.2785 84.7887
L11.2166 84.8506
" />
<path d="M11.2166 84.8506
L11.0928 84.9125
" />
<path d="M11.0928 84.9125
L10.6595 84.9125
" />
</g><text x="11.0000" y="135.6500"
textLength="1.4972" font-size="1.7333" lengthAdjust="spacingAndGlyphs"
text-anchor="middle" opacity="0" stroke-opacity="0">C</text>
<g class="stroked-text"><desc>C</desc>
<path d="M11.4023 135.4696
L11.3404 135.5316
" />
<path d="M11.3404 135.5316
L11.1547 135.5935
" />
<path d="M11.1547 135.5935
L11.0309 135.5935
" />
<path d="M11.0309 135.5935
L10.8452 135.5316
" />
<path d="M10.8452 135.5316
L10.7214 135.4077
" />
<path d="M10.7214 135.4077
L10.6595 135.2839
" />
<path d="M10.6595 135.2839
L10.5976 135.0363
" />
<path d="M10.5976 135.0363
L10.5976 134.8506
" />
<path d="M10.5976 134.8506
L10.6595 134.6030
" />
<path d="M10.6595 134.6030
L10.7214 134.4792
" />
<path d="M10.7214 134.4792
L10.8452 134.3554
" />
<path d="M10.8452 134.3554
L11.0309 134.2935
" />
<path d="M11.0309 134.2935
L11.1547 134.2935
" />
<path d="M11.1547 134.2935
L11.3404 134.3554
" />
<path d="M11.3404 134.3554
L11.4023 134.4173
" />
</g><text x="11.0000" y="185.6500"
textLength="1.4972" font-size="1.7333" lengthAdjust="spacingAndGlyphs"
text-anchor="middle" opacity="0" stroke-opacity="0">D</text>
<g class="stroked-text"><desc>D</desc>
<path d="M10.6595 185.5935
L10.6595 184.2935
" />
<path d="M10.6595 184.2935
L10.9690 184.2935
" />
<path d="M10.9690 184.2935
L11.1547 184.3554
" />
<path d="M11.1547 184.3554
L11.2785 184.4792
" />
<path d="M11.2785 184.4792
L11.3404 184.6030
" />
<path d="M11.3404 184.6030
L11.4023 184.8506
" />
<path d="M11.4023 184.8506
L11.4023 185.0363
" />
<path d="M11.4023 185.0363
L11.3404 185.2839
" />
<path d="M11.3404 185.2839
L11.2785 185.4077
" />
<path d="M11.2785 185.4077
L11.1547 185.5316
" />
<path d="M11.1547 185.5316
L10.9690 185.5935
" />
<path d="M10.9690 185.5935
L10.6595 185.5935
" />
</g><text x="11.0000" y="235.6500"
textLength="1.3734" font-size="1.7333" lengthAdjust="spacingAndGlyphs"
text-anchor="middle" opacity="0" stroke-opacity="0">E</text>
<g class="stroked-text"><desc>E</desc>
<path d="M10.7214 234.9125
L11.1547 234.9125
" />
<path d="M11.3404 235.5935
L10.7214 235.5935
" />
<path d="M10.7214 235.5935
L10.7214 234.2935
" />
<path d="M10.7214 234.2935
L11.3404 234.2935
" />
</g><text x="11.0000" y="285.6500"
textLength="1.3115" font-size="1.7333" lengthAdjust="spacingAndGlyphs"
text-anchor="middle" opacity="0" stroke-opacity="0">F</text>
<g class="stroked-text"><desc>F</desc>
<path d="M11.1857 284.9125
L10.7524 284.9125
" />
<path d="M10.7524 285.5935
L10.7524 284.2935
" />
<path d="M10.7524 284.2935
L11.3714 284.2935
" />
</g><path d="M409.9890 60.0000
L407.9890 60.0000
" />
<path d="M409.9890 110.0000
L407.9890 110.0000
" />
<path d="M409.9890 160.0000
L407.9890 160.0000
" />
<path d="M409.9890 210.0000
L407.9890 210.0000
" />
<path d="M409.9890 260.0000
L407.9890 260.0000
" />
<text x="408.9890" y="35.6500"
textLength="1.3115" font-size="1.7333" lengthAdjust="spacingAndGlyphs"
text-anchor="middle" opacity="0" stroke-opacity="0">A</text>
<g class="stroked-text"><desc>A</desc>
<path d="M408.6795 35.2220
L409.2985 35.2220
" />
<path d="M408.5557 35.5935
L408.9890 34.2935
" />
<path d="M408.9890 34.2935
L409.4223 35.5935
" />
</g><text x="408.9890" y="85.6500"
textLength="1.4972" font-size="1.7333" lengthAdjust="spacingAndGlyphs"
text-anchor="middle" opacity="0" stroke-opacity="0">B</text>
<g class="stroked-text"><desc>B</desc>
<path d="M409.0818 84.9125
L409.2675 84.9744
" />
<path d="M409.2675 84.9744
L409.3294 85.0363
" />
<path d="M409.3294 85.0363
L409.3913 85.1601
" />
<path d="M409.3913 85.1601
L409.3913 85.3458
" />
<path d="M409.3913 85.3458
L409.3294 85.4696
" />
<path d="M409.3294 85.4696
L409.2675 85.5316
" />
<path d="M409.2675 85.5316
L409.1437 85.5935
" />
<path d="M409.1437 85.5935
L408.6485 85.5935
" />
<path d="M408.6485 85.5935
L408.6485 84.2935
" />
<path d="M408.6485 84.2935
L409.0818 84.2935
" />
<path d="M409.0818 84.2935
L409.2056 84.3554
" />
<path d="M409.2056 84.3554
L409.2675 84.4173
" />
<path d="M409.2675 84.4173
L409.3294 84.5411
" />
<path d="M409.3294 84.5411
L409.3294 84.6649
" />
<path d="M409.3294 84.6649
L409.2675 84.7887
" />
<path d="M409.2675 84.7887
L409.2056 84.8506
" />
<path d="M409.2056 84.8506
L409.0818 84.9125
" />
<path d="M409.0818 84.9125
L408.6485 84.9125
" />
</g><text x="408.9890" y="135.6500"
textLength="1.4972" font-size="1.7333" lengthAdjust="spacingAndGlyphs"
text-anchor="middle" opacity="0" stroke-opacity="0">C</text>
<g class="stroked-text"><desc>C</desc>
<path d="M409.3913 135.4696
L409.3294 135.5316
" />
<path d="M409.3294 135.5316
L409.1437 135.5935
" />
<path d="M409.1437 135.5935
L409.0199 135.5935
" />
<path d="M409.0199 135.5935
L408.8342 135.5316
" />
<path d="M408.8342 135.5316
L408.7104 135.4077
" />
<path d="M408.7104 135.4077
L408.6485 135.2839
" />
<path d="M408.6485 135.2839
L408.5866 135.0363
" />
<path d="M408.5866 135.0363
L408.5866 134.8506
" />
<path d="M408.5866 134.8506
L408.6485 134.6030
" />
<path d="M408.6485 134.6030
L408.7104 134.4792
" />
<path d="M408.7104 134.4792
L408.8342 134.3554
" />
<path d="M408.8342 134.3554
L409.0199 134.2935
" />
<path d="M409.0199 134.2935
L409.1437 134.2935
" />
<path d="M409.1437 134.2935
L409.3294 134.3554
" />
<path d="M409.3294 134.3554
L409.3913 134.4173
" />
</g><text x="408.9890" y="185.6500"
textLength="1.4972" font-size="1.7333" lengthAdjust="spacingAndGlyphs"
text-anchor="middle" opacity="0" stroke-opacity="0">D</text>
<g class="stroked-text"><desc>D</desc>
<path d="M408.6485 185.5935
L408.6485 184.2935
" />
<path d="M408.6485 184.2935
L408.9580 184.2935
" />
<path d="M408.9580 184.2935
L409.1437 184.3554
" />
<path d="M409.1437 184.3554
L409.2675 184.4792
" />
<path d="M409.2675 184.4792
L409.3294 184.6030
" />
<path d="M409.3294 184.6030
L409.3913 184.8506
" />
<path d="M409.3913 184.8506
L409.3913 185.0363
" />
<path d="M409.3913 185.0363
L409.3294 185.2839
" />
<path d="M409.3294 185.2839
L409.2675 185.4077
" />
<path d="M409.2675 185.4077
L409.1437 185.5316
" />
<path d="M409.1437 185.5316
L408.9580 185.5935
" />
<path d="M408.9580 185.5935
L408.6485 185.5935
" />
</g><text x="408.9890" y="235.6500"
textLength="1.3734" font-size="1.7333" lengthAdjust="spacingAndGlyphs"
text-anchor="middle" opacity="0" stroke-opacity="0">E</text>
<g class="stroked-text"><desc>E</desc>
<path d="M408.7104 234.9125
L409.1437 234.9125
" />
<path d="M409.3294 235.5935
L408.7104 235.5935
" />
<path d="M408.7104 235.5935
L408.7104 234.2935
" />
<path d="M408.7104 234.2935
L409.3294 234.2935
" />
</g><text x="408.9890" y="285.6500"
textLength="1.3115" font-size="1.7333" lengthAdjust="spacingAndGlyphs"
text-anchor="middle" opacity="0" stroke-opacity="0">F</text>
<g class="stroked-text"><desc>F</desc>
<path d="M409.1747 284.9125
L408.7414 284.9125
" />
<path d="M408.7414 285.5935
L408.7414 284.2935
" />
<path d="M408.7414 284.2935
L409.3604 284.2935
" />
</g><text x="322.9890" y="280.8522"
textLength="7.0143" font-size="2.0000" lengthAdjust="spacingAndGlyphs"
text-anchor="start" opacity="0" stroke-opacity="0">Date: </text>
<g class="stroked-text"><desc>Date: </desc>
<path d="M323.4463 280.7881
L323.4463 279.2881
" />
<path d="M323.4463 279.2881
L323.8034 279.2881
" />
<path d="M323.8034 279.2881
L324.0177 279.3595
" />
<path d="M324.0177 279.3595
L324.1606 279.5024
" />
<path d="M324.1606 279.5024
L324.2320 279.6452
" />
<path d="M324.2320 279.6452
L324.3034 279.9309
" />
<path d="M324.3034 279.9309
L324.3034 280.1452
" />
<path d="M324.3034 280.1452
L324.2320 280.4309
" />
<path d="M324.2320 280.4309
L324.1606 280.5738
" />
<path d="M324.1606 280.5738
L324.0177 280.7167
" />
<path d="M324.0177 280.7167
L323.8034 280.7881
" />
<path d="M323.8034 280.7881
L323.4463 280.7881
" />
<path d="M325.5892 280.7881
L325.5892 280.0024
" />
<path d="M325.5892 280.0024
L325.5177 279.8595
" />
<path d="M325.5177 279.8595
L325.3749 279.7881
" />
<path d="M325.3749 279.7881
L325.0892 279.7881
" />
<path d="M325.0892 279.7881
L324.9463 279.8595
" />
<path d="M325.5892 280.7167
L325.4463 280.7881
" />
<path d="M325.4463 280.7881
L325.0892 280.7881
" />
<path d="M325.0892 280.7881
L324.9463 280.7167
" />
<path d="M324.9463 280.7167
L324.8749 280.5738
" />
<path d="M324.8749 280.5738
L324.8749 280.4309
" />
<path d="M324.8749 280.4309
L324.9463 280.2881
" />
<path d="M324.9463 280.2881
L325.0892 280.2167
" />
<path d="M325.0892 280.2167
L325.4463 280.2167
" />
<path d="M325.4463 280.2167
L325.5892 280.1452
" />
<path d="M326.0891 279.7881
L326.6605 279.7881
" />
<path d="M326.3034 279.2881
L326.3034 280.5738
" />
<path d="M326.3034 280.5738
L326.3748 280.7167
" />
<path d="M326.3748 280.7167
L326.5177 280.7881
" />
<path d="M326.5177 280.7881
L326.6605 280.7881
" />
<path d="M327.7319 280.7167
L327.5891 280.7881
" />
<path d="M327.5891 280.7881
L327.3034 280.7881
" />
<path d="M327.3034 280.7881
L327.1605 280.7167
" />
<path d="M327.1605 280.7167
L327.0891 280.5738
" />
<path d="M327.0891 280.5738
L327.0891 280.0024
" />
<path d="M327.0891 280.0024
L327.1605 279.8595
" />
<path d="M327.1605 279.8595
L327.3034 279.7881
" />
<path d="M327.3034 279.7881
L327.5891 279.7881
" />
<path d="M327.5891 279.7881
L327.7319 279.8595
" />
<path d="M327.7319 279.8595
L327.8034 280.0024
" />
<path d="M327.8034 280.0024
L327.8034 280.1452
" />
<path d="M327.8034 280.1452
L327.0891 280.2881
" />
<path d="M328.4462 280.6452
L328.5176 280.7167
" />
<path d="M328.5176 280.7167
L328.4462 280.7881
" />
<path d="M328.4462 280.7881
L328.3748 280.7167
" />
<path d="M328.3748 280.7167
L328.4462 280.6452
" />
<path d="M328.4462 280.6452
L328.4462 280.7881
" />
<path d="M328.4462 279.8595
L328.5176 279.9309
" />
<path d="M328.5176 279.9309
L328.4462 280.0024
" />
<path d="M328.4462 280.0024
L328.3748 279.9309
" />
<path d="M328.3748 279.9309
L328.4462 279.8595
" />
<path d="M328.4462 279.8595
L328.4462 280.0024
" />
</g><path d="M299.9890 281.5022
L407.9890 281.5022
" />
<text x="300.9890" y="283.6522"
textLength="20.8716" font-size="2.0000" lengthAdjust="spacingAndGlyphs"
text-anchor="start" opacity="0" stroke-opacity="0">KiCad E.D.A. 9.0.3</text>
<g class="stroked-text"><desc>KiCad E.D.A. 9.0.3</desc>
<path d="M301.4463 283.5881
L301.4463 282.0881
" />
<path d="M302.3034 283.5881
L301.6606 282.7309
" />
<path d="M302.3034 282.0881
L301.4463 282.9452
" />
<path d="M302.9463 283.5881
L302.9463 282.5881
" />
<path d="M302.9463 282.0881
L302.8749 282.1595
" />
<path d="M302.8749 282.1595
L302.9463 282.2309
" />
<path d="M302.9463 282.2309
L303.0177 282.1595
" />
<path d="M303.0177 282.1595
L302.9463 282.0881
" />
<path d="M302.9463 282.0881
L302.9463 282.2309
" />
<path d="M304.5177 283.4452
L304.4463 283.5167
" />
<path d="M304.4463 283.5167
L304.2320 283.5881
" />
<path d="M304.2320 283.5881
L304.0892 283.5881
" />
<path d="M304.0892 283.5881
L303.8749 283.5167
" />
<path d="M303.8749 283.5167
L303.7320 283.3738
" />
<path d="M303.7320 283.3738
L303.6606 283.2309
" />
<path d="M303.6606 283.2309
L303.5892 282.9452
" />
<path d="M303.5892 282.9452
L303.5892 282.7309
" />
<path d="M303.5892 282.7309
L303.6606 282.4452
" />
<path d="M303.6606 282.4452
L303.7320 282.3024
" />
<path d="M303.7320 282.3024
L303.8749 282.1595
" />
<path d="M303.8749 282.1595
L304.0892 282.0881
" />
<path d="M304.0892 282.0881
L304.2320 282.0881
" />
<path d="M304.2320 282.0881
L304.4463 282.1595
" />
<path d="M304.4463 282.1595
L304.5177 282.2309
" />
<path d="M305.8035 283.5881
L305.8035 282.8024
" />
<path d="M305.8035 282.8024
L305.7320 282.6595
" />
<path d="M305.7320 282.6595
L305.5892 282.5881
" />
<path d="M305.5892 282.5881
L305.3035 282.5881
" />
<path d="M305.3035 282.5881
L305.1606 282.6595
" />
<path d="M305.8035 283.5167
L305.6606 283.5881
" />
<path d="M305.6606 283.5881
L305.3035 283.5881
" />
<path d="M305.3035 283.5881
L305.1606 283.5167
" />
<path d="M305.1606 283.5167
L305.0892 283.3738
" />
<path d="M305.0892 283.3738
L305.0892 283.2309
" />
<path d="M305.0892 283.2309
L305.1606 283.0881
" />
<path d="M305.1606 283.0881
L305.3035 283.0167
" />
<path d="M305.3035 283.0167
L305.6606 283.0167
" />
<path d="M305.6606 283.0167
L305.8035 282.9452
" />
<path d="M307.1606 283.5881
L307.1606 282.0881
" />
<path d="M307.1606 283.5167
L307.0177 283.5881
" />
<path d="M307.0177 283.5881
L306.7320 283.5881
" />
<path d="M306.7320 283.5881
L306.5891 283.5167
" />
<path d="M306.5891 283.5167
L306.5177 283.4452
" />
<path d="M306.5177 283.4452
L306.4463 283.3024
" />
<path d="M306.4463 283.3024
L306.4463 282.8738
" />
<path d="M306.4463 282.8738
L306.5177 282.7309
" />
<path d="M306.5177 282.7309
L306.5891 282.6595
" />
<path d="M306.5891 282.6595
L306.7320 282.5881
" />
<path d="M306.7320 282.5881
L307.0177 282.5881
" />
<path d="M307.0177 282.5881
L307.1606 282.6595
" />
<path d="M309.0177 282.8024
L309.5177 282.8024
" />
<path d="M309.7320 283.5881
L309.0177 283.5881
" />
<path d="M309.0177 283.5881
L309.0177 282.0881
" />
<path d="M309.0177 282.0881
L309.7320 282.0881
" />
<path d="M310.3748 283.4452
L310.4462 283.5167
" />
<path d="M310.4462 283.5167
L310.3748 283.5881
" />
<path d="M310.3748 283.5881
L310.3034 283.5167
" />
<path d="M310.3034 283.5167
L310.3748 283.4452
" />
<path d="M310.3748 283.4452
L310.3748 283.5881
" />
<path d="M311.0891 283.5881
L311.0891 282.0881
" />
<path d="M311.0891 282.0881
L311.4462 282.0881
" />
<path d="M311.4462 282.0881
L311.6605 282.1595
" />
<path d="M311.6605 282.1595
L311.8034 282.3024
" />
<path d="M311.8034 282.3024
L311.8748 282.4452
" />
<path d="M311.8748 282.4452
L311.9462 282.7309
" />
<path d="M311.9462 282.7309
L311.9462 282.9452
" />
<path d="M311.9462 282.9452
L311.8748 283.2309
" />
<path d="M311.8748 283.2309
L311.8034 283.3738
" />
<path d="M311.8034 283.3738
L311.6605 283.5167
" />
<path d="M311.6605 283.5167
L311.4462 283.5881
" />
<path d="M311.4462 283.5881
L311.0891 283.5881
" />
<path d="M312.5891 283.4452
L312.6605 283.5167
" />
<path d="M312.6605 283.5167
L312.5891 283.5881
" />
<path d="M312.5891 283.5881
L312.5177 283.5167
" />
<path d="M312.5177 283.5167
L312.5891 283.4452
" />
<path d="M312.5891 283.4452
L312.5891 283.5881
" />
<path d="M313.2320 283.1595
L313.9463 283.1595
" />
<path d="M313.0891 283.5881
L313.5891 282.0881
" />
<path d="M313.5891 282.0881
L314.0891 283.5881
" />
<path d="M314.5891 283.4452
L314.6605 283.5167
" />
<path d="M314.6605 283.5167
L314.5891 283.5881
" />
<path d="M314.5891 283.5881
L314.5177 283.5167
" />
<path d="M314.5177 283.5167
L314.5891 283.4452
" />
<path d="M314.5891 283.4452
L314.5891 283.5881
" />
<path d="M316.5177 283.5881
L316.8034 283.5881
" />
<path d="M316.8034 283.5881
L316.9463 283.5167
" />
<path d="M316.9463 283.5167
L317.0177 283.4452
" />
<path d="M317.0177 283.4452
L317.1606 283.2309
" />
<path d="M317.1606 283.2309
L317.2320 282.9452
" />
<path d="M317.2320 282.9452
L317.2320 282.3738
" />
<path d="M317.2320 282.3738
L317.1606 282.2309
" />
<path d="M317.1606 282.2309
L317.0892 282.1595
" />
<path d="M317.0892 282.1595
L316.9463 282.0881
" />
<path d="M316.9463 282.0881
L316.6606 282.0881
" />
<path d="M316.6606 282.0881
L316.5177 282.1595
" />
<path d="M316.5177 282.1595
L316.4463 282.2309
" />
<path d="M316.4463 282.2309
L316.3749 282.3738
" />
<path d="M316.3749 282.3738
L316.3749 282.7309
" />
<path d="M316.3749 282.7309
L316.4463 282.8738
" />
<path d="M316.4463 282.8738
L316.5177 282.9452
" />
<path d="M316.5177 282.9452
L316.6606 283.0167
" />
<path d="M316.6606 283.0167
L316.9463 283.0167
" />
<path d="M316.9463 283.0167
L317.0892 282.9452
" />
<path d="M317.0892 282.9452
L317.1606 282.8738
" />
<path d="M317.1606 282.8738
L317.2320 282.7309
" />
<path d="M317.8749 283.4452
L317.9463 283.5167
" />
<path d="M317.9463 283.5167
L317.8749 283.5881
" />
<path d="M317.8749 283.5881
L317.8035 283.5167
" />
<path d="M317.8035 283.5167
L317.8749 283.4452
" />
<path d="M317.8749 283.4452
L317.8749 283.5881
" />
<path d="M318.8749 282.0881
L319.0178 282.0881
" />
<path d="M319.0178 282.0881
L319.1606 282.1595
" />
<path d="M319.1606 282.1595
L319.2321 282.2309
" />
<path d="M319.2321 282.2309
L319.3035 282.3738
" />
<path d="M319.3035 282.3738
L319.3749 282.6595
" />
<path d="M319.3749 282.6595
L319.3749 283.0167
" />
<path d="M319.3749 283.0167
L319.3035 283.3024
" />
<path d="M319.3035 283.3024
L319.2321 283.4452
" />
<path d="M319.2321 283.4452
L319.1606 283.5167
" />
<path d="M319.1606 283.5167
L319.0178 283.5881
" />
<path d="M319.0178 283.5881
L318.8749 283.5881
" />
<path d="M318.8749 283.5881
L318.7321 283.5167
" />
<path d="M318.7321 283.5167
L318.6606 283.4452
" />
<path d="M318.6606 283.4452
L318.5892 283.3024
" />
<path d="M318.5892 283.3024
L318.5178 283.0167
" />
<path d="M318.5178 283.0167
L318.5178 282.6595
" />
<path d="M318.5178 282.6595
L318.5892 282.3738
" />
<path d="M318.5892 282.3738
L318.6606 282.2309
" />
<path d="M318.6606 282.2309
L318.7321 282.1595
" />
<path d="M318.7321 282.1595
L318.8749 282.0881
" />
<path d="M320.0178 283.4452
L320.0892 283.5167
" />
<path d="M320.0892 283.5167
L320.0178 283.5881
" />
<path d="M320.0178 283.5881
L319.9464 283.5167
" />
<path d="M319.9464 283.5167
L320.0178 283.4452
" />
<path d="M320.0178 283.4452
L320.0178 283.5881
" />
<path d="M320.5892 282.0881
L321.5178 282.0881
" />
<path d="M321.5178 282.0881
L321.0178 282.6595
" />
<path d="M321.0178 282.6595
L321.2321 282.6595
" />
<path d="M321.2321 282.6595
L321.3750 282.7309
" />
<path d="M321.3750 282.7309
L321.4464 282.8024
" />
<path d="M321.4464 282.8024
L321.5178 282.9452
" />
<path d="M321.5178 282.9452
L321.5178 283.3024
" />
<path d="M321.5178 283.3024
L321.4464 283.4452
" />
<path d="M321.4464 283.4452
L321.3750 283.5167
" />
<path d="M321.3750 283.5167
L321.2321 283.5881
" />
<path d="M321.2321 283.5881
L320.8035 283.5881
" />
<path d="M320.8035 283.5881
L320.6607 283.5167
" />
<path d="M320.6607 283.5167
L320.5892 283.4452
" />
</g><path d="M299.9890 278.5022
L407.9890 278.5022
" />
</g>
<g style="fill:none; 
stroke:#840000; stroke-width:0.3000; stroke-opacity:1; 
stroke-linecap:round; stroke-linejoin:round;">
<text x="385.9890" y="280.8522"
textLength="9.9573" font-size="2.0000" lengthAdjust="spacingAndGlyphs"
text-anchor="start" opacity="0" stroke-opacity="0">Rev: 2.0</text>
<g class="stroked-text"><desc>Rev: 2.0</desc>
<path d="M387.4005 280.7805
L386.9005 280.0662
" />
<path d="M386.5434 280.7805
L386.5434 279.2805
" />
<path d="M386.5434 279.2805
L387.1148 279.2805
" />
<path d="M387.1148 279.2805
L387.2577 279.3519
" />
<path d="M387.2577 279.3519
L387.3291 279.4233
" />
<path d="M387.3291 279.4233
L387.4005 279.5662
" />
<path d="M387.4005 279.5662
L387.4005 279.7805
" />
<path d="M387.4005 279.7805
L387.3291 279.9233
" />
<path d="M387.3291 279.9233
L387.2577 279.9948
" />
<path d="M387.2577 279.9948
L387.1148 280.0662
" />
<path d="M387.1148 280.0662
L386.5434 280.0662
" />
<path d="M388.6148 280.7091
L388.4720 280.7805
" />
<path d="M388.4720 280.7805
L388.1863 280.7805
" />
<path d="M388.1863 280.7805
L388.0434 280.7091
" />
<path d="M388.0434 280.7091
L387.9720 280.5662
" />
<path d="M387.9720 280.5662
L387.9720 279.9948
" />
<path d="M387.9720 279.9948
L388.0434 279.8519
" />
<path d="M388.0434 279.8519
L388.1863 279.7805
" />
<path d="M388.1863 279.7805
L388.4720 279.7805
" />
<path d="M388.4720 279.7805
L388.6148 279.8519
" />
<path d="M388.6148 279.8519
L388.6863 279.9948
" />
<path d="M388.6863 279.9948
L388.6863 280.1376
" />
<path d="M388.6863 280.1376
L387.9720 280.2805
" />
<path d="M389.1862 279.7805
L389.5434 280.7805
" />
<path d="M389.5434 280.7805
L389.9005 279.7805
" />
<path d="M390.4720 280.6376
L390.5434 280.7091
" />
<path d="M390.5434 280.7091
L390.4720 280.7805
" />
<path d="M390.4720 280.7805
L390.4006 280.7091
" />
<path d="M390.4006 280.7091
L390.4720 280.6376
" />
<path d="M390.4720 280.6376
L390.4720 280.7805
" />
<path d="M390.4720 279.8519
L390.5434 279.9233
" />
<path d="M390.5434 279.9233
L390.4720 279.9948
" />
<path d="M390.4720 279.9948
L390.4006 279.9233
" />
<path d="M390.4006 279.9233
L390.4720 279.8519
" />
<path d="M390.4720 279.8519
L390.4720 279.9948
" />
<path d="M392.2578 279.4233
L392.3292 279.3519
" />
<path d="M392.3292 279.3519
L392.4721 279.2805
" />
<path d="M392.4721 279.2805
L392.8292 279.2805
" />
<path d="M392.8292 279.2805
L392.9721 279.3519
" />
<path d="M392.9721 279.3519
L393.0435 279.4233
" />
<path d="M393.0435 279.4233
L393.1149 279.5662
" />
<path d="M393.1149 279.5662
L393.1149 279.7091
" />
<path d="M393.1149 279.7091
L393.0435 279.9233
" />
<path d="M393.0435 279.9233
L392.1863 280.7805
" />
<path d="M392.1863 280.7805
L393.1149 280.7805
" />
<path d="M393.7578 280.6376
L393.8292 280.7091
" />
<path d="M393.8292 280.7091
L393.7578 280.7805
" />
<path d="M393.7578 280.7805
L393.6864 280.7091
" />
<path d="M393.6864 280.7091
L393.7578 280.6376
" />
<path d="M393.7578 280.6376
L393.7578 280.7805
" />
<path d="M394.7578 279.2805
L394.9007 279.2805
" />
<path d="M394.9007 279.2805
L395.0435 279.3519
" />
<path d="M395.0435 279.3519
L395.1150 279.4233
" />
<path d="M395.1150 279.4233
L395.1864 279.5662
" />
<path d="M395.1864 279.5662
L395.2578 279.8519
" />
<path d="M395.2578 279.8519
L395.2578 280.2091
" />
<path d="M395.2578 280.2091
L395.1864 280.4948
" />
<path d="M395.1864 280.4948
L395.1150 280.6376
" />
<path d="M395.1150 280.6376
L395.0435 280.7091
" />
<path d="M395.0435 280.7091
L394.9007 280.7805
" />
<path d="M394.9007 280.7805
L394.7578 280.7805
" />
<path d="M394.7578 280.7805
L394.6150 280.7091
" />
<path d="M394.6150 280.7091
L394.5435 280.6376
" />
<path d="M394.5435 280.6376
L394.4721 280.4948
" />
<path d="M394.4721 280.4948
L394.4007 280.2091
" />
<path d="M394.4007 280.2091
L394.4007 279.8519
" />
<path d="M394.4007 279.8519
L394.4721 279.5662
" />
<path d="M394.4721 279.5662
L394.5435 279.4233
" />
<path d="M394.5435 279.4233
L394.6150 279.3519
" />
<path d="M394.6150 279.3519
L394.7578 279.2805
" />
</g></g>
<g style="fill:none; 
stroke:#840000; stroke-width:0.1524; stroke-opacity:1; 
stroke-linecap:round; stroke-linejoin:round;">
<text x="300.9890" y="280.8522"
textLength="9.3716" font-size="2.0000" lengthAdjust="spacingAndGlyphs"
text-anchor="start" opacity="0" stroke-opacity="0">Size: A3</text>
<g class="stroked-text"><desc>Size: A3</desc>
<path d="M301.3749 280.7167
L301.5892 280.7881
" />
<path d="M301.5892 280.7881
L301.9463 280.7881
" />
<path d="M301.9463 280.7881
L302.0892 280.7167
" />
<path d="M302.0892 280.7167
L302.1606 280.6452
" />
<path d="M302.1606 280.6452
L302.2320 280.5024
" />
<path d="M302.2320 280.5024
L302.2320 280.3595
" />
<path d="M302.2320 280.3595
L302.1606 280.2167
" />
<path d="M302.1606 280.2167
L302.0892 280.1452
" />
<path d="M302.0892 280.1452
L301.9463 280.0738
" />
<path d="M301.9463 280.0738
L301.6606 280.0024
" />
<path d="M301.6606 280.0024
L301.5177 279.9309
" />
<path d="M301.5177 279.9309
L301.4463 279.8595
" />
<path d="M301.4463 279.8595
L301.3749 279.7167
" />
<path d="M301.3749 279.7167
L301.3749 279.5738
" />
<path d="M301.3749 279.5738
L301.4463 279.4309
" />
<path d="M301.4463 279.4309
L301.5177 279.3595
" />
<path d="M301.5177 279.3595
L301.6606 279.2881
" />
<path d="M301.6606 279.2881
L302.0177 279.2881
" />
<path d="M302.0177 279.2881
L302.2320 279.3595
" />
<path d="M302.8749 280.7881
L302.8749 279.7881
" />
<path d="M302.8749 279.2881
L302.8035 279.3595
" />
<path d="M302.8035 279.3595
L302.8749 279.4309
" />
<path d="M302.8749 279.4309
L302.9463 279.3595
" />
<path d="M302.9463 279.3595
L302.8749 279.2881
" />
<path d="M302.8749 279.2881
L302.8749 279.4309
" />
<path d="M303.4463 279.7881
L304.2321 279.7881
" />
<path d="M304.2321 279.7881
L303.4463 280.7881
" />
<path d="M303.4463 280.7881
L304.2321 280.7881
" />
<path d="M305.3749 280.7167
L305.2321 280.7881
" />
<path d="M305.2321 280.7881
L304.9464 280.7881
" />
<path d="M304.9464 280.7881
L304.8035 280.7167
" />
<path d="M304.8035 280.7167
L304.7321 280.5738
" />
<path d="M304.7321 280.5738
L304.7321 280.0024
" />
<path d="M304.7321 280.0024
L304.8035 279.8595
" />
<path d="M304.8035 279.8595
L304.9464 279.7881
" />
<path d="M304.9464 279.7881
L305.2321 279.7881
" />
<path d="M305.2321 279.7881
L305.3749 279.8595
" />
<path d="M305.3749 279.8595
L305.4464 280.0024
" />
<path d="M305.4464 280.0024
L305.4464 280.1452
" />
<path d="M305.4464 280.1452
L304.7321 280.2881
" />
<path d="M306.0892 280.6452
L306.1606 280.7167
" />
<path d="M306.1606 280.7167
L306.0892 280.7881
" />
<path d="M306.0892 280.7881
L306.0178 280.7167
" />
<path d="M306.0178 280.7167
L306.0892 280.6452
" />
<path d="M306.0892 280.6452
L306.0892 280.7881
" />
<path d="M306.0892 279.8595
L306.1606 279.9309
" />
<path d="M306.1606 279.9309
L306.0892 280.0024
" />
<path d="M306.0892 280.0024
L306.0178 279.9309
" />
<path d="M306.0178 279.9309
L306.0892 279.8595
" />
<path d="M306.0892 279.8595
L306.0892 280.0024
" />
<path d="M307.8750 280.3595
L308.5893 280.3595
" />
<path d="M307.7321 280.7881
L308.2321 279.2881
" />
<path d="M308.2321 279.2881
L308.7321 280.7881
" />
<path d="M309.0892 279.2881
L310.0178 279.2881
" />
<path d="M310.0178 279.2881
L309.5178 279.8595
" />
<path d="M309.5178 279.8595
L309.7321 279.8595
" />
<path d="M309.7321 279.8595
L309.8750 279.9309
" />
<path d="M309.8750 279.9309
L309.9464 280.0024
" />
<path d="M309.9464 280.0024
L310.0178 280.1452
" />
<path d="M310.0178 280.1452
L310.0178 280.5024
" />
<path d="M310.0178 280.5024
L309.9464 280.6452
" />
<path d="M309.9464 280.6452
L309.8750 280.7167
" />
<path d="M309.8750 280.7167
L309.7321 280.7881
" />
<path d="M309.7321 280.7881
L309.3035 280.7881
" />
<path d="M309.3035 280.7881
L309.1607 280.7167
" />
<path d="M309.1607 280.7167
L309.0892 280.6452
" />
</g><text x="385.9890" y="283.6522"
textLength="8.5144" font-size="2.0000" lengthAdjust="spacingAndGlyphs"
text-anchor="start" opacity="0" stroke-opacity="0">Id: 3/5</text>
<g class="stroked-text"><desc>Id: 3/5</desc>
<path d="M386.4463 283.5881
L386.4463 282.0881
" />
<path d="M387.8035 283.5881
L387.8035 282.0881
" />
<path d="M387.8035 283.5167
L387.6606 283.5881
" />
<path d="M387.6606 283.5881
L387.3749 283.5881
" />
<path d="M387.3749 283.5881
L387.2320 283.5167
" />
<path d="M387.2320 283.5167
L387.1606 283.4452
" />
<path d="M387.1606 283.4452
L387.0892 283.3024
" />
<path d="M387.0892 283.3024
L387.0892 282.8738
" />
<path d="M387.0892 282.8738
L387.1606 282.7309
" />
<path d="M387.1606 282.7309
L387.2320 282.6595
" />
<path d="M387.2320 282.6595
L387.3749 282.5881
" />
<path d="M387.3749 282.5881
L387.6606 282.5881
" />
<path d="M387.6606 282.5881
L387.8035 282.6595
" />
<path d="M388.5177 283.4452
L388.5891 283.5167
" />
<path d="M388.5891 283.5167
L388.5177 283.5881
" />
<path d="M388.5177 283.5881
L388.4463 283.5167
" />
<path d="M388.4463 283.5167
L388.5177 283.4452
" />
<path d="M388.5177 283.4452
L388.5177 283.5881
" />
<path d="M388.5177 282.6595
L388.5891 282.7309
" />
<path d="M388.5891 282.7309
L388.5177 282.8024
" />
<path d="M388.5177 282.8024
L388.4463 282.7309
" />
<path d="M388.4463 282.7309
L388.5177 282.6595
" />
<path d="M388.5177 282.6595
L388.5177 282.8024
" />
<path d="M390.2320 282.0881
L391.1606 282.0881
" />
<path d="M391.1606 282.0881
L390.6606 282.6595
" />
<path d="M390.6606 282.6595
L390.8749 282.6595
" />
<path d="M390.8749 282.6595
L391.0178 282.7309
" />
<path d="M391.0178 282.7309
L391.0892 282.8024
" />
<path d="M391.0892 282.8024
L391.1606 282.9452
" />
<path d="M391.1606 282.9452
L391.1606 283.3024
" />
<path d="M391.1606 283.3024
L391.0892 283.4452
" />
<path d="M391.0892 283.4452
L391.0178 283.5167
" />
<path d="M391.0178 283.5167
L390.8749 283.5881
" />
<path d="M390.8749 283.5881
L390.4463 283.5881
" />
<path d="M390.4463 283.5881
L390.3035 283.5167
" />
<path d="M390.3035 283.5167
L390.2320 283.4452
" />
<path d="M392.8749 282.0167
L391.5892 283.9452
" />
<path d="M394.0892 282.0881
L393.3749 282.0881
" />
<path d="M393.3749 282.0881
L393.3035 282.8024
" />
<path d="M393.3035 282.8024
L393.3749 282.7309
" />
<path d="M393.3749 282.7309
L393.5178 282.6595
" />
<path d="M393.5178 282.6595
L393.8749 282.6595
" />
<path d="M393.8749 282.6595
L394.0178 282.7309
" />
<path d="M394.0178 282.7309
L394.0892 282.8024
" />
<path d="M394.0892 282.8024
L394.1606 282.9452
" />
<path d="M394.1606 282.9452
L394.1606 283.3024
" />
<path d="M394.1606 283.3024
L394.0892 283.4452
" />
<path d="M394.0892 283.4452
L394.0178 283.5167
" />
<path d="M394.0178 283.5167
L393.8749 283.5881
" />
<path d="M393.8749 283.5881
L393.5178 283.5881
" />
<path d="M393.5178 283.5881
L393.3749 283.5167
" />
<path d="M393.3749 283.5167
L393.3035 283.4452
" />
</g><path d="M299.9890 274.5022
L407.9890 274.5022
" />
</g>
<g style="fill:none; 
stroke:#840000; stroke-width:0.4000; stroke-opacity:1; 
stroke-linecap:round; stroke-linejoin:round;">
<text x="300.9890" y="277.3022"
textLength="71.2762" font-size="2.6666" lengthAdjust="spacingAndGlyphs"
text-anchor="start" opacity="0" stroke-opacity="0">Title: ArtNet LED Controller — MCU (RP2354A)</text>
<g class="stroked-text"><desc>Title: ArtNet LED Controller — MCU (RP2354A)</desc>
<path d="M301.6806 275.2066
L302.8235 275.2066
" />
<path d="M302.0021 277.2066
L302.2521 275.2066
" />
<path d="M303.2401 277.2066
L303.4068 275.8733
" />
<path d="M303.4901 275.2066
L303.3830 275.3018
" />
<path d="M303.3830 275.3018
L303.4663 275.3971
" />
<path d="M303.4663 275.3971
L303.5735 275.3018
" />
<path d="M303.5735 275.3018
L303.4901 275.2066
" />
<path d="M303.4901 275.2066
L303.4663 275.3971
" />
<path d="M304.0735 275.8733
L304.8354 275.8733
" />
<path d="M304.4425 275.2066
L304.2283 276.9209
" />
<path d="M304.2283 276.9209
L304.2997 277.1114
" />
<path d="M304.2997 277.1114
L304.4783 277.2066
" />
<path d="M304.4783 277.2066
L304.6687 277.2066
" />
<path d="M305.6212 277.2066
L305.4426 277.1114
" />
<path d="M305.4426 277.1114
L305.3712 276.9209
" />
<path d="M305.3712 276.9209
L305.5854 275.2066
" />
<path d="M307.1568 277.1114
L306.9545 277.2066
" />
<path d="M306.9545 277.2066
L306.5735 277.2066
" />
<path d="M306.5735 277.2066
L306.3949 277.1114
" />
<path d="M306.3949 277.1114
L306.3235 276.9209
" />
<path d="M306.3235 276.9209
L306.4188 276.1590
" />
<path d="M306.4188 276.1590
L306.5378 275.9685
" />
<path d="M306.5378 275.9685
L306.7402 275.8733
" />
<path d="M306.7402 275.8733
L307.1211 275.8733
" />
<path d="M307.1211 275.8733
L307.2997 275.9685
" />
<path d="M307.2997 275.9685
L307.3711 276.1590
" />
<path d="M307.3711 276.1590
L307.3473 276.3494
" />
<path d="M307.3473 276.3494
L306.3711 276.5399
" />
<path d="M308.1211 277.0161
L308.2045 277.1114
" />
<path d="M308.2045 277.1114
L308.0973 277.2066
" />
<path d="M308.0973 277.2066
L308.0140 277.1114
" />
<path d="M308.0140 277.1114
L308.1211 277.0161
" />
<path d="M308.1211 277.0161
L308.0973 277.2066
" />
<path d="M308.2521 275.9685
L308.3354 276.0637
" />
<path d="M308.3354 276.0637
L308.2283 276.1590
" />
<path d="M308.2283 276.1590
L308.1450 276.0637
" />
<path d="M308.1450 276.0637
L308.2521 275.9685
" />
<path d="M308.2521 275.9685
L308.2283 276.1590
" />
<path d="M310.5497 276.6352
L311.5021 276.6352
" />
<path d="M310.2878 277.2066
L311.2045 275.2066
" />
<path d="M311.2045 275.2066
L311.6212 277.2066
" />
<path d="M312.2878 277.2066
L312.4545 275.8733
" />
<path d="M312.4069 276.2542
L312.5259 276.0637
" />
<path d="M312.5259 276.0637
L312.6331 275.9685
" />
<path d="M312.6331 275.9685
L312.8355 275.8733
" />
<path d="M312.8355 275.8733
L313.0259 275.8733
" />
<path d="M313.4069 275.8733
L314.1688 275.8733
" />
<path d="M313.7759 275.2066
L313.5617 276.9209
" />
<path d="M313.5617 276.9209
L313.6331 277.1114
" />
<path d="M313.6331 277.1114
L313.8117 277.2066
" />
<path d="M313.8117 277.2066
L314.0021 277.2066
" />
<path d="M314.6688 277.2066
L314.9188 275.2066
" />
<path d="M314.9188 275.2066
L315.8117 277.2066
" />
<path d="M315.8117 277.2066
L316.0617 275.2066
" />
<path d="M317.5378 277.1114
L317.3355 277.2066
" />
<path d="M317.3355 277.2066
L316.9545 277.2066
" />
<path d="M316.9545 277.2066
L316.7759 277.1114
" />
<path d="M316.7759 277.1114
L316.7045 276.9209
" />
<path d="M316.7045 276.9209
L316.7998 276.1590
" />
<path d="M316.7998 276.1590
L316.9188 275.9685
" />
<path d="M316.9188 275.9685
L317.1212 275.8733
" />
<path d="M317.1212 275.8733
L317.5021 275.8733
" />
<path d="M317.5021 275.8733
L317.6807 275.9685
" />
<path d="M317.6807 275.9685
L317.7521 276.1590
" />
<path d="M317.7521 276.1590
L317.7283 276.3494
" />
<path d="M317.7283 276.3494
L316.7521 276.5399
" />
<path d="M318.3593 275.8733
L319.1212 275.8733
" />
<path d="M318.7283 275.2066
L318.5141 276.9209
" />
<path d="M318.5141 276.9209
L318.5855 277.1114
" />
<path d="M318.5855 277.1114
L318.7641 277.2066
" />
<path d="M318.7641 277.2066
L318.9545 277.2066
" />
<path d="M322.0974 277.2066
L321.1450 277.2066
" />
<path d="M321.1450 277.2066
L321.3950 275.2066
" />
<path d="M322.8950 276.1590
L323.5617 276.1590
" />
<path d="M323.7164 277.2066
L322.7640 277.2066
" />
<path d="M322.7640 277.2066
L323.0140 275.2066
" />
<path d="M323.0140 275.2066
L323.9664 275.2066
" />
<path d="M324.5735 277.2066
L324.8235 275.2066
" />
<path d="M324.8235 275.2066
L325.2997 275.2066
" />
<path d="M325.2997 275.2066
L325.5735 275.3018
" />
<path d="M325.5735 275.3018
L325.7402 275.4923
" />
<path d="M325.7402 275.4923
L325.8116 275.6828
" />
<path d="M325.8116 275.6828
L325.8593 276.0637
" />
<path d="M325.8593 276.0637
L325.8235 276.3494
" />
<path d="M325.8235 276.3494
L325.6807 276.7304
" />
<path d="M325.6807 276.7304
L325.5616 276.9209
" />
<path d="M325.5616 276.9209
L325.3473 277.1114
" />
<path d="M325.3473 277.1114
L325.0497 277.2066
" />
<path d="M325.0497 277.2066
L324.5735 277.2066
" />
<path d="M329.2640 277.0161
L329.1569 277.1114
" />
<path d="M329.1569 277.1114
L328.8592 277.2066
" />
<path d="M328.8592 277.2066
L328.6688 277.2066
" />
<path d="M328.6688 277.2066
L328.3950 277.1114
" />
<path d="M328.3950 277.1114
L328.2283 276.9209
" />
<path d="M328.2283 276.9209
L328.1569 276.7304
" />
<path d="M328.1569 276.7304
L328.1092 276.3494
" />
<path d="M328.1092 276.3494
L328.1450 276.0637
" />
<path d="M328.1450 276.0637
L328.2878 275.6828
" />
<path d="M328.2878 275.6828
L328.4069 275.4923
" />
<path d="M328.4069 275.4923
L328.6211 275.3018
" />
<path d="M328.6211 275.3018
L328.9188 275.2066
" />
<path d="M328.9188 275.2066
L329.1092 275.2066
" />
<path d="M329.1092 275.2066
L329.3831 275.3018
" />
<path d="M329.3831 275.3018
L329.4664 275.3971
" />
<path d="M330.3831 277.2066
L330.2045 277.1114
" />
<path d="M330.2045 277.1114
L330.1211 277.0161
" />
<path d="M330.1211 277.0161
L330.0497 276.8256
" />
<path d="M330.0497 276.8256
L330.1211 276.2542
" />
<path d="M330.1211 276.2542
L330.2402 276.0637
" />
<path d="M330.2402 276.0637
L330.3473 275.9685
" />
<path d="M330.3473 275.9685
L330.5497 275.8733
" />
<path d="M330.5497 275.8733
L330.8354 275.8733
" />
<path d="M330.8354 275.8733
L331.0140 275.9685
" />
<path d="M331.0140 275.9685
L331.0973 276.0637
" />
<path d="M331.0973 276.0637
L331.1688 276.2542
" />
<path d="M331.1688 276.2542
L331.0973 276.8256
" />
<path d="M331.0973 276.8256
L330.9783 277.0161
" />
<path d="M330.9783 277.0161
L330.8711 277.1114
" />
<path d="M330.8711 277.1114
L330.6688 277.2066
" />
<path d="M330.6688 277.2066
L330.3831 277.2066
" />
<path d="M332.0735 275.8733
L331.9068 277.2066
" />
<path d="M332.0497 276.0637
L332.1568 275.9685
" />
<path d="M332.1568 275.9685
L332.3592 275.8733
" />
<path d="M332.3592 275.8733
L332.6449 275.8733
" />
<path d="M332.6449 275.8733
L332.8235 275.9685
" />
<path d="M332.8235 275.9685
L332.8949 276.1590
" />
<path d="M332.8949 276.1590
L332.7640 277.2066
" />
<path d="M333.5973 275.8733
L334.3592 275.8733
" />
<path d="M333.9663 275.2066
L333.7521 276.9209
" />
<path d="M333.7521 276.9209
L333.8235 277.1114
" />
<path d="M333.8235 277.1114
L334.0021 277.2066
" />
<path d="M334.0021 277.2066
L334.1925 277.2066
" />
<path d="M334.8592 277.2066
L335.0259 275.8733
" />
<path d="M334.9783 276.2542
L335.0973 276.0637
" />
<path d="M335.0973 276.0637
L335.2045 275.9685
" />
<path d="M335.2045 275.9685
L335.4069 275.8733
" />
<path d="M335.4069 275.8733
L335.5973 275.8733
" />
<path d="M336.3831 277.2066
L336.2045 277.1114
" />
<path d="M336.2045 277.1114
L336.1211 277.0161
" />
<path d="M336.1211 277.0161
L336.0497 276.8256
" />
<path d="M336.0497 276.8256
L336.1211 276.2542
" />
<path d="M336.1211 276.2542
L336.2402 276.0637
" />
<path d="M336.2402 276.0637
L336.3473 275.9685
" />
<path d="M336.3473 275.9685
L336.5497 275.8733
" />
<path d="M336.5497 275.8733
L336.8354 275.8733
" />
<path d="M336.8354 275.8733
L337.0140 275.9685
" />
<path d="M337.0140 275.9685
L337.0973 276.0637
" />
<path d="M337.0973 276.0637
L337.1688 276.2542
" />
<path d="M337.1688 276.2542
L337.0973 276.8256
" />
<path d="M337.0973 276.8256
L336.9783 277.0161
" />
<path d="M336.9783 277.0161
L336.8711 277.1114
" />
<path d="M336.8711 277.1114
L336.6688 277.2066
" />
<path d="M336.6688 277.2066
L336.3831 277.2066
" />
<path d="M338.1926 277.2066
L338.0140 277.1114
" />
<path d="M338.0140 277.1114
L337.9426 276.9209
" />
<path d="M337.9426 276.9209
L338.1568 275.2066
" />
<path d="M339.2402 277.2066
L339.0616 277.1114
" />
<path d="M339.0616 277.1114
L338.9902 276.9209
" />
<path d="M338.9902 276.9209
L339.2044 275.2066
" />
<path d="M340.7758 277.1114
L340.5735 277.2066
" />
<path d="M340.5735 277.2066
L340.1925 277.2066
" />
<path d="M340.1925 277.2066
L340.0139 277.1114
" />
<path d="M340.0139 277.1114
L339.9425 276.9209
" />
<path d="M339.9425 276.9209
L340.0378 276.1590
" />
<path d="M340.0378 276.1590
L340.1568 275.9685
" />
<path d="M340.1568 275.9685
L340.3592 275.8733
" />
<path d="M340.3592 275.8733
L340.7401 275.8733
" />
<path d="M340.7401 275.8733
L340.9187 275.9685
" />
<path d="M340.9187 275.9685
L340.9901 276.1590
" />
<path d="M340.9901 276.1590
L340.9663 276.3494
" />
<path d="M340.9663 276.3494
L339.9901 276.5399
" />
<path d="M341.7163 277.2066
L341.8830 275.8733
" />
<path d="M341.8354 276.2542
L341.9544 276.0637
" />
<path d="M341.9544 276.0637
L342.0616 275.9685
" />
<path d="M342.0616 275.9685
L342.2640 275.8733
" />
<path d="M342.2640 275.8733
L342.4544 275.8733
" />
<path d="M344.3711 276.5399
L346.0854 276.5399
" />
<path d="M348.2877 277.2066
L348.5377 275.2066
" />
<path d="M348.5377 275.2066
L349.0258 276.6352
" />
<path d="M349.0258 276.6352
L349.8711 275.2066
" />
<path d="M349.8711 275.2066
L349.6211 277.2066
" />
<path d="M351.7401 277.0161
L351.6330 277.1114
" />
<path d="M351.6330 277.1114
L351.3353 277.2066
" />
<path d="M351.3353 277.2066
L351.1449 277.2066
" />
<path d="M351.1449 277.2066
L350.8711 277.1114
" />
<path d="M350.8711 277.1114
L350.7044 276.9209
" />
<path d="M350.7044 276.9209
L350.6330 276.7304
" />
<path d="M350.6330 276.7304
L350.5853 276.3494
" />
<path d="M350.5853 276.3494
L350.6211 276.0637
" />
<path d="M350.6211 276.0637
L350.7639 275.6828
" />
<path d="M350.7639 275.6828
L350.8830 275.4923
" />
<path d="M350.8830 275.4923
L351.0972 275.3018
" />
<path d="M351.0972 275.3018
L351.3949 275.2066
" />
<path d="M351.3949 275.2066
L351.5853 275.2066
" />
<path d="M351.5853 275.2066
L351.8592 275.3018
" />
<path d="M351.8592 275.3018
L351.9425 275.3971
" />
<path d="M352.8234 275.2066
L352.6211 276.8256
" />
<path d="M352.6211 276.8256
L352.6925 277.0161
" />
<path d="M352.6925 277.0161
L352.7758 277.1114
" />
<path d="M352.7758 277.1114
L352.9544 277.2066
" />
<path d="M352.9544 277.2066
L353.3353 277.2066
" />
<path d="M353.3353 277.2066
L353.5377 277.1114
" />
<path d="M353.5377 277.1114
L353.6449 277.0161
" />
<path d="M353.6449 277.0161
L353.7639 276.8256
" />
<path d="M353.7639 276.8256
L353.9663 275.2066
" />
<path d="M356.6686 277.9685
L356.5853 277.8733
" />
<path d="M356.5853 277.8733
L356.4305 277.5875
" />
<path d="M356.4305 277.5875
L356.3591 277.3971
" />
<path d="M356.3591 277.3971
L356.2996 277.1114
" />
<path d="M356.2996 277.1114
L356.2639 276.6352
" />
<path d="M356.2639 276.6352
L356.3115 276.2542
" />
<path d="M356.3115 276.2542
L356.4662 275.7780
" />
<path d="M356.4662 275.7780
L356.5972 275.4923
" />
<path d="M356.5972 275.4923
L356.7162 275.3018
" />
<path d="M356.7162 275.3018
L356.9424 275.0161
" />
<path d="M356.9424 275.0161
L357.0496 274.9209
" />
<path d="M358.6686 277.2066
L358.1210 276.2542
" />
<path d="M357.5257 277.2066
L357.7757 275.2066
" />
<path d="M357.7757 275.2066
L358.5376 275.2066
" />
<path d="M358.5376 275.2066
L358.7162 275.3018
" />
<path d="M358.7162 275.3018
L358.7995 275.3971
" />
<path d="M358.7995 275.3971
L358.8710 275.5875
" />
<path d="M358.8710 275.5875
L358.8353 275.8733
" />
<path d="M358.8353 275.8733
L358.7162 276.0637
" />
<path d="M358.7162 276.0637
L358.6091 276.1590
" />
<path d="M358.6091 276.1590
L358.4067 276.2542
" />
<path d="M358.4067 276.2542
L357.6448 276.2542
" />
<path d="M359.5257 277.2066
L359.7757 275.2066
" />
<path d="M359.7757 275.2066
L360.5376 275.2066
" />
<path d="M360.5376 275.2066
L360.7162 275.3018
" />
<path d="M360.7162 275.3018
L360.7995 275.3971
" />
<path d="M360.7995 275.3971
L360.8710 275.5875
" />
<path d="M360.8710 275.5875
L360.8353 275.8733
" />
<path d="M360.8353 275.8733
L360.7162 276.0637
" />
<path d="M360.7162 276.0637
L360.6091 276.1590
" />
<path d="M360.6091 276.1590
L360.4067 276.2542
" />
<path d="M360.4067 276.2542
L359.6448 276.2542
" />
<path d="M361.6567 275.3971
L361.7638 275.3018
" />
<path d="M361.7638 275.3018
L361.9662 275.2066
" />
<path d="M361.9662 275.2066
L362.4424 275.2066
" />
<path d="M362.4424 275.2066
L362.6210 275.3018
" />
<path d="M362.6210 275.3018
L362.7043 275.3971
" />
<path d="M362.7043 275.3971
L362.7757 275.5875
" />
<path d="M362.7757 275.5875
L362.7519 275.7780
" />
<path d="M362.7519 275.7780
L362.6210 276.0637
" />
<path d="M362.6210 276.0637
L361.3353 277.2066
" />
<path d="M361.3353 277.2066
L362.5734 277.2066
" />
<path d="M363.4901 275.2066
L364.7282 275.2066
" />
<path d="M364.7282 275.2066
L363.9663 275.9685
" />
<path d="M363.9663 275.9685
L364.2520 275.9685
" />
<path d="M364.2520 275.9685
L364.4305 276.0637
" />
<path d="M364.4305 276.0637
L364.5139 276.1590
" />
<path d="M364.5139 276.1590
L364.5853 276.3494
" />
<path d="M364.5853 276.3494
L364.5258 276.8256
" />
<path d="M364.5258 276.8256
L364.4067 277.0161
" />
<path d="M364.4067 277.0161
L364.2996 277.1114
" />
<path d="M364.2996 277.1114
L364.0972 277.2066
" />
<path d="M364.0972 277.2066
L363.5258 277.2066
" />
<path d="M363.5258 277.2066
L363.3472 277.1114
" />
<path d="M363.3472 277.1114
L363.2639 277.0161
" />
<path d="M366.5377 275.2066
L365.5853 275.2066
" />
<path d="M365.5853 275.2066
L365.3711 276.1590
" />
<path d="M365.3711 276.1590
L365.4782 276.0637
" />
<path d="M365.4782 276.0637
L365.6806 275.9685
" />
<path d="M365.6806 275.9685
L366.1568 275.9685
" />
<path d="M366.1568 275.9685
L366.3353 276.0637
" />
<path d="M366.3353 276.0637
L366.4187 276.1590
" />
<path d="M366.4187 276.1590
L366.4901 276.3494
" />
<path d="M366.4901 276.3494
L366.4306 276.8256
" />
<path d="M366.4306 276.8256
L366.3115 277.0161
" />
<path d="M366.3115 277.0161
L366.2044 277.1114
" />
<path d="M366.2044 277.1114
L366.0020 277.2066
" />
<path d="M366.0020 277.2066
L365.5258 277.2066
" />
<path d="M365.5258 277.2066
L365.3472 277.1114
" />
<path d="M365.3472 277.1114
L365.2639 277.0161
" />
<path d="M368.2639 275.8733
L368.0973 277.2066
" />
<path d="M367.8830 275.1114
L367.2282 276.5399
" />
<path d="M367.2282 276.5399
L368.4663 276.5399
" />
<path d="M369.1211 276.6352
L370.0735 276.6352
" />
<path d="M368.8592 277.2066
L369.7759 275.2066
" />
<path d="M369.7759 275.2066
L370.1926 277.2066
" />
<path d="M370.5735 277.9685
L370.6807 277.8733
" />
<path d="M370.6807 277.8733
L370.9069 277.5875
" />
<path d="M370.9069 277.5875
L371.0259 277.3971
" />
<path d="M371.0259 277.3971
L371.1569 277.1114
" />
<path d="M371.1569 277.1114
L371.3116 276.6352
" />
<path d="M371.3116 276.6352
L371.3592 276.2542
" />
<path d="M371.3592 276.2542
L371.3235 275.7780
" />
<path d="M371.3235 275.7780
L371.2640 275.4923
" />
<path d="M371.2640 275.4923
L371.1926 275.3018
" />
<path d="M371.1926 275.3018
L371.0378 275.0161
" />
<path d="M371.0378 275.0161
L370.9545 274.9209
" />
</g></g>
<g style="fill:none; 
stroke:#840000; stroke-width:0.1524; stroke-opacity:1; 
stroke-linecap:round; stroke-linejoin:round;">
<text x="300.9890" y="273.4522"
textLength="22.3714" font-size="2.0000" lengthAdjust="spacingAndGlyphs"
text-anchor="start" opacity="0" stroke-opacity="0">File: mcu.kicad_sch</text>
<g class="stroked-text"><desc>File: mcu.kicad_sch</desc>
<path d="M301.9463 272.6024
L301.4463 272.6024
" />
<path d="M301.4463 273.3881
L301.4463 271.8881
" />
<path d="M301.4463 271.8881
L302.1606 271.8881
" />
<path d="M302.7320 273.3881
L302.7320 272.3881
" />
<path d="M302.7320 271.8881
L302.6606 271.9595
" />
<path d="M302.6606 271.9595
L302.7320 272.0309
" />
<path d="M302.7320 272.0309
L302.8034 271.9595
" />
<path d="M302.8034 271.9595
L302.7320 271.8881
" />
<path d="M302.7320 271.8881
L302.7320 272.0309
" />
<path d="M303.6606 273.3881
L303.5177 273.3167
" />
<path d="M303.5177 273.3167
L303.4463 273.1738
" />
<path d="M303.4463 273.1738
L303.4463 271.8881
" />
<path d="M304.8034 273.3167
L304.6606 273.3881
" />
<path d="M304.6606 273.3881
L304.3749 273.3881
" />
<path d="M304.3749 273.3881
L304.2320 273.3167
" />
<path d="M304.2320 273.3167
L304.1606 273.1738
" />
<path d="M304.1606 273.1738
L304.1606 272.6024
" />
<path d="M304.1606 272.6024
L304.2320 272.4595
" />
<path d="M304.2320 272.4595
L304.3749 272.3881
" />
<path d="M304.3749 272.3881
L304.6606 272.3881
" />
<path d="M304.6606 272.3881
L304.8034 272.4595
" />
<path d="M304.8034 272.4595
L304.8749 272.6024
" />
<path d="M304.8749 272.6024
L304.8749 272.7452
" />
<path d="M304.8749 272.7452
L304.1606 272.8881
" />
<path d="M305.5177 273.2452
L305.5891 273.3167
" />
<path d="M305.5891 273.3167
L305.5177 273.3881
" />
<path d="M305.5177 273.3881
L305.4463 273.3167
" />
<path d="M305.4463 273.3167
L305.5177 273.2452
" />
<path d="M305.5177 273.2452
L305.5177 273.3881
" />
<path d="M305.5177 272.4595
L305.5891 272.5309
" />
<path d="M305.5891 272.5309
L305.5177 272.6024
" />
<path d="M305.5177 272.6024
L305.4463 272.5309
" />
<path d="M305.4463 272.5309
L305.5177 272.4595
" />
<path d="M305.5177 272.4595
L305.5177 272.6024
" />
<path d="M307.3749 273.3881
L307.3749 272.3881
" />
<path d="M307.3749 272.5309
L307.4463 272.4595
" />
<path d="M307.4463 272.4595
L307.5892 272.3881
" />
<path d="M307.5892 272.3881
L307.8035 272.3881
" />
<path d="M307.8035 272.3881
L307.9463 272.4595
" />
<path d="M307.9463 272.4595
L308.0178 272.6024
" />
<path d="M308.0178 272.6024
L308.0178 273.3881
" />
<path d="M308.0178 272.6024
L308.0892 272.4595
" />
<path d="M308.0892 272.4595
L308.2320 272.3881
" />
<path d="M308.2320 272.3881
L308.4463 272.3881
" />
<path d="M308.4463 272.3881
L308.5892 272.4595
" />
<path d="M308.5892 272.4595
L308.6606 272.6024
" />
<path d="M308.6606 272.6024
L308.6606 273.3881
" />
<path d="M310.0178 273.3167
L309.8749 273.3881
" />
<path d="M309.8749 273.3881
L309.5892 273.3881
" />
<path d="M309.5892 273.3881
L309.4463 273.3167
" />
<path d="M309.4463 273.3167
L309.3749 273.2452
" />
<path d="M309.3749 273.2452
L309.3035 273.1024
" />
<path d="M309.3035 273.1024
L309.3035 272.6738
" />
<path d="M309.3035 272.6738
L309.3749 272.5309
" />
<path d="M309.3749 272.5309
L309.4463 272.4595
" />
<path d="M309.4463 272.4595
L309.5892 272.3881
" />
<path d="M309.5892 272.3881
L309.8749 272.3881
" />
<path d="M309.8749 272.3881
L310.0178 272.4595
" />
<path d="M311.3035 272.3881
L311.3035 273.3881
" />
<path d="M310.6606 272.3881
L310.6606 273.1738
" />
<path d="M310.6606 273.1738
L310.7320 273.3167
" />
<path d="M310.7320 273.3167
L310.8749 273.3881
" />
<path d="M310.8749 273.3881
L311.0892 273.3881
" />
<path d="M311.0892 273.3881
L311.2320 273.3167
" />
<path d="M311.2320 273.3167
L311.3035 273.2452
" />
<path d="M312.0177 273.2452
L312.0891 273.3167
" />
<path d="M312.0891 273.3167
L312.0177 273.3881
" />
<path d="M312.0177 273.3881
L311.9463 273.3167
" />
<path d="M311.9463 273.3167
L312.0177 273.2452
" />
<path d="M312.0177 273.2452
L312.0177 273.3881
" />
<path d="M312.7320 273.3881
L312.7320 271.8881
" />
<path d="M312.8749 272.8167
L313.3034 273.3881
" />
<path d="M313.3034 272.3881
L312.7320 272.9595
" />
<path d="M313.9463 273.3881
L313.9463 272.3881
" />
<path d="M313.9463 271.8881
L313.8749 271.9595
" />
<path d="M313.8749 271.9595
L313.9463 272.0309
" />
<path d="M313.9463 272.0309
L314.0177 271.9595
" />
<path d="M314.0177 271.9595
L313.9463 271.8881
" />
<path d="M313.9463 271.8881
L313.9463 272.0309
" />
<path d="M315.3035 273.3167
L315.1606 273.3881
" />
<path d="M315.1606 273.3881
L314.8749 273.3881
" />
<path d="M314.8749 273.3881
L314.7320 273.3167
" />
<path d="M314.7320 273.3167
L314.6606 273.2452
" />
<path d="M314.6606 273.2452
L314.5892 273.1024
" />
<path d="M314.5892 273.1024
L314.5892 272.6738
" />
<path d="M314.5892 272.6738
L314.6606 272.5309
" />
<path d="M314.6606 272.5309
L314.7320 272.4595
" />
<path d="M314.7320 272.4595
L314.8749 272.3881
" />
<path d="M314.8749 272.3881
L315.1606 272.3881
" />
<path d="M315.1606 272.3881
L315.3035 272.4595
" />
<path d="M316.5892 273.3881
L316.5892 272.6024
" />
<path d="M316.5892 272.6024
L316.5177 272.4595
" />
<path d="M316.5177 272.4595
L316.3749 272.3881
" />
<path d="M316.3749 272.3881
L316.0892 272.3881
" />
<path d="M316.0892 272.3881
L315.9463 272.4595
" />
<path d="M316.5892 273.3167
L316.4463 273.3881
" />
<path d="M316.4463 273.3881
L316.0892 273.3881
" />
<path d="M316.0892 273.3881
L315.9463 273.3167
" />
<path d="M315.9463 273.3167
L315.8749 273.1738
" />
<path d="M315.8749 273.1738
L315.8749 273.0309
" />
<path d="M315.8749 273.0309
L315.9463 272.8881
" />
<path d="M315.9463 272.8881
L316.0892 272.8167
" />
<path d="M316.0892 272.8167
L316.4463 272.8167
" />
<path d="M316.4463 272.8167
L316.5892 272.7452
" />
<path d="M317.9463 273.3881
L317.9463 271.8881
" />
<path d="M317.9463 273.3167
L317.8034 273.3881
" />
<path d="M317.8034 273.3881
L317.5177 273.3881
" />
<path d="M317.5177 273.3881
L317.3748 273.3167
" />
<path d="M317.3748 273.3167
L317.3034 273.2452
" />
<path d="M317.3034 273.2452
L317.2320 273.1024
" />
<path d="M317.2320 273.1024
L317.2320 272.6738
" />
<path d="M317.2320 272.6738
L317.3034 272.5309
" />
<path d="M317.3034 272.5309
L317.3748 272.4595
" />
<path d="M317.3748 272.4595
L317.5177 272.3881
" />
<path d="M317.5177 272.3881
L317.8034 272.3881
" />
<path d="M317.8034 272.3881
L317.9463 272.4595
" />
<path d="M318.3034 273.5309
L319.4462 273.5309
" />
<path d="M319.7320 273.3167
L319.8748 273.3881
" />
<path d="M319.8748 273.3881
L320.1605 273.3881
" />
<path d="M320.1605 273.3881
L320.3034 273.3167
" />
<path d="M320.3034 273.3167
L320.3748 273.1738
" />
<path d="M320.3748 273.1738
L320.3748 273.1024
" />
<path d="M320.3748 273.1024
L320.3034 272.9595
" />
<path d="M320.3034 272.9595
L320.1605 272.8881
" />
<path d="M320.1605 272.8881
L319.9463 272.8881
" />
<path d="M319.9463 272.8881
L319.8034 272.8167
" />
<path d="M319.8034 272.8167
L319.7320 272.6738
" />
<path d="M319.7320 272.6738
L319.7320 272.6024
" />
<path d="M319.7320 272.6024
L319.8034 272.4595
" />
<path d="M319.8034 272.4595
L319.9463 272.3881
" />
<path d="M319.9463 272.3881
L320.1605 272.3881
" />
<path d="M320.1605 272.3881
L320.3034 272.4595
" />
<path d="M321.6606 273.3167
L321.5177 273.3881
" />
<path d="M321.5177 273.3881
L321.2320 273.3881
" />
<path d="M321.2320 273.3881
L321.0891 273.3167
" />
<path d="M321.0891 273.3167
L321.0177 273.2452
" />
<path d="M321.0177 273.2452
L320.9463 273.1024
" />
<path d="M320.9463 273.1024
L320.9463 272.6738
" />
<path d="M320.9463 272.6738
L321.0177 272.5309
" />
<path d="M321.0177 272.5309
L321.0891 272.4595
" />
<path d="M321.0891 272.4595
L321.2320 272.3881
" />
<path d="M321.2320 272.3881
L321.5177 272.3881
" />
<path d="M321.5177 272.3881
L321.6606 272.4595
" />
<path d="M322.3034 273.3881
L322.3034 271.8881
" />
<path d="M322.9463 273.3881
L322.9463 272.6024
" />
<path d="M322.9463 272.6024
L322.8748 272.4595
" />
<path d="M322.8748 272.4595
L322.7320 272.3881
" />
<path d="M322.7320 272.3881
L322.5177 272.3881
" />
<path d="M322.5177 272.3881
L322.3748 272.4595
" />
<path d="M322.3748 272.4595
L322.3034 272.5309
" />
</g><path d="M299.9890 268.5022
L407.9890 268.5022
" />
<text x="300.9890" y="270.7522"
textLength="29.3001" font-size="2.0000" lengthAdjust="spacingAndGlyphs"
text-anchor="start" opacity="0" stroke-opacity="0">Sheet: /MCU (RP2354A)/</text>
<g class="stroked-text"><desc>Sheet: /MCU (RP2354A)/</desc>
<path d="M301.3749 270.6167
L301.5892 270.6881
" />
<path d="M301.5892 270.6881
L301.9463 270.6881
" />
<path d="M301.9463 270.6881
L302.0892 270.6167
" />
<path d="M302.0892 270.6167
L302.1606 270.5452
" />
<path d="M302.1606 270.5452
L302.2320 270.4024
" />
<path d="M302.2320 270.4024
L302.2320 270.2595
" />
<path d="M302.2320 270.2595
L302.1606 270.1167
" />
<path d="M302.1606 270.1167
L302.0892 270.0452
" />
<path d="M302.0892 270.0452
L301.9463 269.9738
" />
<path d="M301.9463 269.9738
L301.6606 269.9024
" />
<path d="M301.6606 269.9024
L301.5177 269.8309
" />
<path d="M301.5177 269.8309
L301.4463 269.7595
" />
<path d="M301.4463 269.7595
L301.3749 269.6167
" />
<path d="M301.3749 269.6167
L301.3749 269.4738
" />
<path d="M301.3749 269.4738
L301.4463 269.3309
" />
<path d="M301.4463 269.3309
L301.5177 269.2595
" />
<path d="M301.5177 269.2595
L301.6606 269.1881
" />
<path d="M301.6606 269.1881
L302.0177 269.1881
" />
<path d="M302.0177 269.1881
L302.2320 269.2595
" />
<path d="M302.8749 270.6881
L302.8749 269.1881
" />
<path d="M303.5178 270.6881
L303.5178 269.9024
" />
<path d="M303.5178 269.9024
L303.4463 269.7595
" />
<path d="M303.4463 269.7595
L303.3035 269.6881
" />
<path d="M303.3035 269.6881
L303.0892 269.6881
" />
<path d="M303.0892 269.6881
L302.9463 269.7595
" />
<path d="M302.9463 269.7595
L302.8749 269.8309
" />
<path d="M304.8034 270.6167
L304.6606 270.6881
" />
<path d="M304.6606 270.6881
L304.3749 270.6881
" />
<path d="M304.3749 270.6881
L304.2320 270.6167
" />
<path d="M304.2320 270.6167
L304.1606 270.4738
" />
<path d="M304.1606 270.4738
L304.1606 269.9024
" />
<path d="M304.1606 269.9024
L304.2320 269.7595
" />
<path d="M304.2320 269.7595
L304.3749 269.6881
" />
<path d="M304.3749 269.6881
L304.6606 269.6881
" />
<path d="M304.6606 269.6881
L304.8034 269.7595
" />
<path d="M304.8034 269.7595
L304.8749 269.9024
" />
<path d="M304.8749 269.9024
L304.8749 270.0452
" />
<path d="M304.8749 270.0452
L304.1606 270.1881
" />
<path d="M306.0891 270.6167
L305.9463 270.6881
" />
<path d="M305.9463 270.6881
L305.6606 270.6881
" />
<path d="M305.6606 270.6881
L305.5177 270.6167
" />
<path d="M305.5177 270.6167
L305.4463 270.4738
" />
<path d="M305.4463 270.4738
L305.4463 269.9024
" />
<path d="M305.4463 269.9024
L305.5177 269.7595
" />
<path d="M305.5177 269.7595
L305.6606 269.6881
" />
<path d="M305.6606 269.6881
L305.9463 269.6881
" />
<path d="M305.9463 269.6881
L306.0891 269.7595
" />
<path d="M306.0891 269.7595
L306.1606 269.9024
" />
<path d="M306.1606 269.9024
L306.1606 270.0452
" />
<path d="M306.1606 270.0452
L305.4463 270.1881
" />
<path d="M306.5891 269.6881
L307.1605 269.6881
" />
<path d="M306.8034 269.1881
L306.8034 270.4738
" />
<path d="M306.8034 270.4738
L306.8748 270.6167
" />
<path d="M306.8748 270.6167
L307.0177 270.6881
" />
<path d="M307.0177 270.6881
L307.1605 270.6881
" />
<path d="M307.6605 270.5452
L307.7319 270.6167
" />
<path d="M307.7319 270.6167
L307.6605 270.6881
" />
<path d="M307.6605 270.6881
L307.5891 270.6167
" />
<path d="M307.5891 270.6167
L307.6605 270.5452
" />
<path d="M307.6605 270.5452
L307.6605 270.6881
" />
<path d="M307.6605 269.7595
L307.7319 269.8309
" />
<path d="M307.7319 269.8309
L307.6605 269.9024
" />
<path d="M307.6605 269.9024
L307.5891 269.8309
" />
<path d="M307.5891 269.8309
L307.6605 269.7595
" />
<path d="M307.6605 269.7595
L307.6605 269.9024
" />
<path d="M310.5891 269.1167
L309.3034 271.0452
" />
<path d="M311.0891 270.6881
L311.0891 269.1881
" />
<path d="M311.0891 269.1881
L311.5891 270.2595
" />
<path d="M311.5891 270.2595
L312.0891 269.1881
" />
<path d="M312.0891 269.1881
L312.0891 270.6881
" />
<path d="M313.6605 270.5452
L313.5891 270.6167
" />
<path d="M313.5891 270.6167
L313.3748 270.6881
" />
<path d="M313.3748 270.6881
L313.2320 270.6881
" />
<path d="M313.2320 270.6881
L313.0177 270.6167
" />
<path d="M313.0177 270.6167
L312.8748 270.4738
" />
<path d="M312.8748 270.4738
L312.8034 270.3309
" />
<path d="M312.8034 270.3309
L312.7320 270.0452
" />
<path d="M312.7320 270.0452
L312.7320 269.8309
" />
<path d="M312.7320 269.8309
L312.8034 269.5452
" />
<path d="M312.8034 269.5452
L312.8748 269.4024
" />
<path d="M312.8748 269.4024
L313.0177 269.2595
" />
<path d="M313.0177 269.2595
L313.2320 269.1881
" />
<path d="M313.2320 269.1881
L313.3748 269.1881
" />
<path d="M313.3748 269.1881
L313.5891 269.2595
" />
<path d="M313.5891 269.2595
L313.6605 269.3309
" />
<path d="M314.3034 269.1881
L314.3034 270.4024
" />
<path d="M314.3034 270.4024
L314.3748 270.5452
" />
<path d="M314.3748 270.5452
L314.4463 270.6167
" />
<path d="M314.4463 270.6167
L314.5891 270.6881
" />
<path d="M314.5891 270.6881
L314.8748 270.6881
" />
<path d="M314.8748 270.6881
L315.0177 270.6167
" />
<path d="M315.0177 270.6167
L315.0891 270.5452
" />
<path d="M315.0891 270.5452
L315.1605 270.4024
" />
<path d="M315.1605 270.4024
L315.1605 269.1881
" />
<path d="M317.4463 271.2595
L317.3748 271.1881
" />
<path d="M317.3748 271.1881
L317.2320 270.9738
" />
<path d="M317.2320 270.9738
L317.1606 270.8309
" />
<path d="M317.1606 270.8309
L317.0891 270.6167
" />
<path d="M317.0891 270.6167
L317.0177 270.2595
" />
<path d="M317.0177 270.2595
L317.0177 269.9738
" />
<path d="M317.0177 269.9738
L317.0891 269.6167
" />
<path d="M317.0891 269.6167
L317.1606 269.4024
" />
<path d="M317.1606 269.4024
L317.2320 269.2595
" />
<path d="M317.2320 269.2595
L317.3748 269.0452
" />
<path d="M317.3748 269.0452
L317.4463 268.9738
" />
<path d="M318.8748 270.6881
L318.3748 269.9738
" />
<path d="M318.0177 270.6881
L318.0177 269.1881
" />
<path d="M318.0177 269.1881
L318.5891 269.1881
" />
<path d="M318.5891 269.1881
L318.7320 269.2595
" />
<path d="M318.7320 269.2595
L318.8034 269.3309
" />
<path d="M318.8034 269.3309
L318.8748 269.4738
" />
<path d="M318.8748 269.4738
L318.8748 269.6881
" />
<path d="M318.8748 269.6881
L318.8034 269.8309
" />
<path d="M318.8034 269.8309
L318.7320 269.9024
" />
<path d="M318.7320 269.9024
L318.5891 269.9738
" />
<path d="M318.5891 269.9738
L318.0177 269.9738
" />
<path d="M319.5177 270.6881
L319.5177 269.1881
" />
<path d="M319.5177 269.1881
L320.0891 269.1881
" />
<path d="M320.0891 269.1881
L320.2320 269.2595
" />
<path d="M320.2320 269.2595
L320.3034 269.3309
" />
<path d="M320.3034 269.3309
L320.3748 269.4738
" />
<path d="M320.3748 269.4738
L320.3748 269.6881
" />
<path d="M320.3748 269.6881
L320.3034 269.8309
" />
<path d="M320.3034 269.8309
L320.2320 269.9024
" />
<path d="M320.2320 269.9024
L320.0891 269.9738
" />
<path d="M320.0891 269.9738
L319.5177 269.9738
" />
<path d="M320.9463 269.3309
L321.0177 269.2595
" />
<path d="M321.0177 269.2595
L321.1606 269.1881
" />
<path d="M321.1606 269.1881
L321.5177 269.1881
" />
<path d="M321.5177 269.1881
L321.6606 269.2595
" />
<path d="M321.6606 269.2595
L321.7320 269.3309
" />
<path d="M321.7320 269.3309
L321.8034 269.4738
" />
<path d="M321.8034 269.4738
L321.8034 269.6167
" />
<path d="M321.8034 269.6167
L321.7320 269.8309
" />
<path d="M321.7320 269.8309
L320.8748 270.6881
" />
<path d="M320.8748 270.6881
L321.8034 270.6881
" />
<path d="M322.3034 269.1881
L323.2320 269.1881
" />
<path d="M323.2320 269.1881
L322.7320 269.7595
" />
<path d="M322.7320 269.7595
L322.9463 269.7595
" />
<path d="M322.9463 269.7595
L323.0892 269.8309
" />
<path d="M323.0892 269.8309
L323.1606 269.9024
" />
<path d="M323.1606 269.9024
L323.2320 270.0452
" />
<path d="M323.2320 270.0452
L323.2320 270.4024
" />
<path d="M323.2320 270.4024
L323.1606 270.5452
" />
<path d="M323.1606 270.5452
L323.0892 270.6167
" />
<path d="M323.0892 270.6167
L322.9463 270.6881
" />
<path d="M322.9463 270.6881
L322.5177 270.6881
" />
<path d="M322.5177 270.6881
L322.3749 270.6167
" />
<path d="M322.3749 270.6167
L322.3034 270.5452
" />
<path d="M324.5892 269.1881
L323.8749 269.1881
" />
<path d="M323.8749 269.1881
L323.8035 269.9024
" />
<path d="M323.8035 269.9024
L323.8749 269.8309
" />
<path d="M323.8749 269.8309
L324.0178 269.7595
" />
<path d="M324.0178 269.7595
L324.3749 269.7595
" />
<path d="M324.3749 269.7595
L324.5178 269.8309
" />
<path d="M324.5178 269.8309
L324.5892 269.9024
" />
<path d="M324.5892 269.9024
L324.6606 270.0452
" />
<path d="M324.6606 270.0452
L324.6606 270.4024
" />
<path d="M324.6606 270.4024
L324.5892 270.5452
" />
<path d="M324.5892 270.5452
L324.5178 270.6167
" />
<path d="M324.5178 270.6167
L324.3749 270.6881
" />
<path d="M324.3749 270.6881
L324.0178 270.6881
" />
<path d="M324.0178 270.6881
L323.8749 270.6167
" />
<path d="M323.8749 270.6167
L323.8035 270.5452
" />
<path d="M325.9464 269.6881
L325.9464 270.6881
" />
<path d="M325.5892 269.1167
L325.2321 270.1881
" />
<path d="M325.2321 270.1881
L326.1606 270.1881
" />
<path d="M326.6607 270.2595
L327.3750 270.2595
" />
<path d="M326.5178 270.6881
L327.0178 269.1881
" />
<path d="M327.0178 269.1881
L327.5178 270.6881
" />
<path d="M327.8749 271.2595
L327.9464 271.1881
" />
<path d="M327.9464 271.1881
L328.0892 270.9738
" />
<path d="M328.0892 270.9738
L328.1607 270.8309
" />
<path d="M328.1607 270.8309
L328.2321 270.6167
" />
<path d="M328.2321 270.6167
L328.3035 270.2595
" />
<path d="M328.3035 270.2595
L328.3035 269.9738
" />
<path d="M328.3035 269.9738
L328.2321 269.6167
" />
<path d="M328.2321 269.6167
L328.1607 269.4024
" />
<path d="M328.1607 269.4024
L328.0892 269.2595
" />
<path d="M328.0892 269.2595
L327.9464 269.0452
" />
<path d="M327.9464 269.0452
L327.8749 268.9738
" />
<path d="M330.0892 269.1167
L328.8035 271.0452
" />
</g></g>
<g style="fill:none; 
stroke:#840000; stroke-width:0.3000; stroke-opacity:1; 
stroke-linecap:round; stroke-linejoin:round;">
<text x="300.9890" y="267.7522"
textLength="14.9570" font-size="2.0000" lengthAdjust="spacingAndGlyphs"
text-anchor="start" opacity="0" stroke-opacity="0">Open Source</text>
<g class="stroked-text"><desc>Open Source</desc>
<path d="M301.8291 266.1805
L302.1148 266.1805
" />
<path d="M302.1148 266.1805
L302.2577 266.2519
" />
<path d="M302.2577 266.2519
L302.4005 266.3948
" />
<path d="M302.4005 266.3948
L302.4720 266.6805
" />
<path d="M302.4720 266.6805
L302.4720 267.1805
" />
<path d="M302.4720 267.1805
L302.4005 267.4662
" />
<path d="M302.4005 267.4662
L302.2577 267.6091
" />
<path d="M302.2577 267.6091
L302.1148 267.6805
" />
<path d="M302.1148 267.6805
L301.8291 267.6805
" />
<path d="M301.8291 267.6805
L301.6863 267.6091
" />
<path d="M301.6863 267.6091
L301.5434 267.4662
" />
<path d="M301.5434 267.4662
L301.4720 267.1805
" />
<path d="M301.4720 267.1805
L301.4720 266.6805
" />
<path d="M301.4720 266.6805
L301.5434 266.3948
" />
<path d="M301.5434 266.3948
L301.6863 266.2519
" />
<path d="M301.6863 266.2519
L301.8291 266.1805
" />
<path d="M303.1148 266.6805
L303.1148 268.1805
" />
<path d="M303.1148 266.7519
L303.2577 266.6805
" />
<path d="M303.2577 266.6805
L303.5434 266.6805
" />
<path d="M303.5434 266.6805
L303.6862 266.7519
" />
<path d="M303.6862 266.7519
L303.7577 266.8233
" />
<path d="M303.7577 266.8233
L303.8291 266.9662
" />
<path d="M303.8291 266.9662
L303.8291 267.3948
" />
<path d="M303.8291 267.3948
L303.7577 267.5376
" />
<path d="M303.7577 267.5376
L303.6862 267.6091
" />
<path d="M303.6862 267.6091
L303.5434 267.6805
" />
<path d="M303.5434 267.6805
L303.2577 267.6805
" />
<path d="M303.2577 267.6805
L303.1148 267.6091
" />
<path d="M305.0433 267.6091
L304.9005 267.6805
" />
<path d="M304.9005 267.6805
L304.6148 267.6805
" />
<path d="M304.6148 267.6805
L304.4719 267.6091
" />
<path d="M304.4719 267.6091
L304.4005 267.4662
" />
<path d="M304.4005 267.4662
L304.4005 266.8948
" />
<path d="M304.4005 266.8948
L304.4719 266.7519
" />
<path d="M304.4719 266.7519
L304.6148 266.6805
" />
<path d="M304.6148 266.6805
L304.9005 266.6805
" />
<path d="M304.9005 266.6805
L305.0433 266.7519
" />
<path d="M305.0433 266.7519
L305.1148 266.8948
" />
<path d="M305.1148 266.8948
L305.1148 267.0376
" />
<path d="M305.1148 267.0376
L304.4005 267.1805
" />
<path d="M305.7576 266.6805
L305.7576 267.6805
" />
<path d="M305.7576 266.8233
L305.8290 266.7519
" />
<path d="M305.8290 266.7519
L305.9719 266.6805
" />
<path d="M305.9719 266.6805
L306.1862 266.6805
" />
<path d="M306.1862 266.6805
L306.3290 266.7519
" />
<path d="M306.3290 266.7519
L306.4005 266.8948
" />
<path d="M306.4005 266.8948
L306.4005 267.6805
" />
<path d="M308.1862 267.6091
L308.4005 267.6805
" />
<path d="M308.4005 267.6805
L308.7576 267.6805
" />
<path d="M308.7576 267.6805
L308.9005 267.6091
" />
<path d="M308.9005 267.6091
L308.9719 267.5376
" />
<path d="M308.9719 267.5376
L309.0433 267.3948
" />
<path d="M309.0433 267.3948
L309.0433 267.2519
" />
<path d="M309.0433 267.2519
L308.9719 267.1091
" />
<path d="M308.9719 267.1091
L308.9005 267.0376
" />
<path d="M308.9005 267.0376
L308.7576 266.9662
" />
<path d="M308.7576 266.9662
L308.4719 266.8948
" />
<path d="M308.4719 266.8948
L308.3290 266.8233
" />
<path d="M308.3290 266.8233
L308.2576 266.7519
" />
<path d="M308.2576 266.7519
L308.1862 266.6091
" />
<path d="M308.1862 266.6091
L308.1862 266.4662
" />
<path d="M308.1862 266.4662
L308.2576 266.3233
" />
<path d="M308.2576 266.3233
L308.3290 266.2519
" />
<path d="M308.3290 266.2519
L308.4719 266.1805
" />
<path d="M308.4719 266.1805
L308.8290 266.1805
" />
<path d="M308.8290 266.1805
L309.0433 266.2519
" />
<path d="M309.9005 267.6805
L309.7576 267.6091
" />
<path d="M309.7576 267.6091
L309.6862 267.5376
" />
<path d="M309.6862 267.5376
L309.6148 267.3948
" />
<path d="M309.6148 267.3948
L309.6148 266.9662
" />
<path d="M309.6148 266.9662
L309.6862 266.8233
" />
<path d="M309.6862 266.8233
L309.7576 266.7519
" />
<path d="M309.7576 266.7519
L309.9005 266.6805
" />
<path d="M309.9005 266.6805
L310.1148 266.6805
" />
<path d="M310.1148 266.6805
L310.2576 266.7519
" />
<path d="M310.2576 266.7519
L310.3291 266.8233
" />
<path d="M310.3291 266.8233
L310.4005 266.9662
" />
<path d="M310.4005 266.9662
L310.4005 267.3948
" />
<path d="M310.4005 267.3948
L310.3291 267.5376
" />
<path d="M310.3291 267.5376
L310.2576 267.6091
" />
<path d="M310.2576 267.6091
L310.1148 267.6805
" />
<path d="M310.1148 267.6805
L309.9005 267.6805
" />
<path d="M311.6862 266.6805
L311.6862 267.6805
" />
<path d="M311.0433 266.6805
L311.0433 267.4662
" />
<path d="M311.0433 267.4662
L311.1147 267.6091
" />
<path d="M311.1147 267.6091
L311.2576 267.6805
" />
<path d="M311.2576 267.6805
L311.4719 267.6805
" />
<path d="M311.4719 267.6805
L311.6147 267.6091
" />
<path d="M311.6147 267.6091
L311.6862 267.5376
" />
<path d="M312.4004 267.6805
L312.4004 266.6805
" />
<path d="M312.4004 266.9662
L312.4718 266.8233
" />
<path d="M312.4718 266.8233
L312.5433 266.7519
" />
<path d="M312.5433 266.7519
L312.6861 266.6805
" />
<path d="M312.6861 266.6805
L312.8290 266.6805
" />
<path d="M313.9719 267.6091
L313.8290 267.6805
" />
<path d="M313.8290 267.6805
L313.5433 267.6805
" />
<path d="M313.5433 267.6805
L313.4004 267.6091
" />
<path d="M313.4004 267.6091
L313.3290 267.5376
" />
<path d="M313.3290 267.5376
L313.2576 267.3948
" />
<path d="M313.2576 267.3948
L313.2576 266.9662
" />
<path d="M313.2576 266.9662
L313.3290 266.8233
" />
<path d="M313.3290 266.8233
L313.4004 266.7519
" />
<path d="M313.4004 266.7519
L313.5433 266.6805
" />
<path d="M313.5433 266.6805
L313.8290 266.6805
" />
<path d="M313.8290 266.6805
L313.9719 266.7519
" />
<path d="M315.1861 267.6091
L315.0433 267.6805
" />
<path d="M315.0433 267.6805
L314.7576 267.6805
" />
<path d="M314.7576 267.6805
L314.6147 267.6091
" />
<path d="M314.6147 267.6091
L314.5433 267.4662
" />
<path d="M314.5433 267.4662
L314.5433 266.8948
" />
<path d="M314.5433 266.8948
L314.6147 266.7519
" />
<path d="M314.6147 266.7519
L314.7576 266.6805
" />
<path d="M314.7576 266.6805
L315.0433 266.6805
" />
<path d="M315.0433 266.6805
L315.1861 266.7519
" />
<path d="M315.1861 266.7519
L315.2576 266.8948
" />
<path d="M315.2576 266.8948
L315.2576 267.0376
" />
<path d="M315.2576 267.0376
L314.5433 267.1805
" />
</g></g>
<g style="fill:none; 
stroke:#840000; stroke-width:0.1524; stroke-opacity:1; 
stroke-linecap:round; stroke-linejoin:round;">
<text x="300.9890" y="264.7522"
textLength="0.4572" font-size="2.0000" lengthAdjust="spacingAndGlyphs"
text-anchor="start" opacity="0" stroke-opacity="0"></text>
<g class="stroked-text"><desc></desc>
</g><text x="300.9890" y="261.7522"
textLength="0.4572" font-size="2.0000" lengthAdjust="spacingAndGlyphs"
text-anchor="start" opacity="0" stroke-opacity="0"></text>
<g class="stroked-text"><desc></desc>
</g><text x="300.9890" y="258.7522"
textLength="0.4572" font-size="2.0000" lengthAdjust="spacingAndGlyphs"
text-anchor="start" opacity="0" stroke-opacity="0"></text>
<g class="stroked-text"><desc></desc>
</g><text x="300.9890" y="255.7522"
textLength="0.4572" font-size="2.0000" lengthAdjust="spacingAndGlyphs"
text-anchor="start" opacity="0" stroke-opacity="0"></text>
<g class="stroked-text"><desc></desc>
</g><path d="M319.9890 278.5022
L319.9890 281.5022
" />
<path d="M383.9890 278.5022
L383.9890 285.0022
" />
</g> 
</svg>
